<?xml version="1.0" encoding="UTF-8" standalone="no"?>
<!DOCTYPE svg PUBLIC "-//W3C//DTD SVG 1.1//EN"
 "http://www.w3.org/Graphics/SVG/1.1/DTD/svg11.dtd">
<!-- Generated by graphviz version 2.43.0 (0)
 -->
<!-- Title: Tree Pages: 1 -->
<svg width="383pt" height="314pt"
 viewBox="0.00 0.00 382.50 314.00" xmlns="http://www.w3.org/2000/svg" xmlns:xlink="http://www.w3.org/1999/xlink">
<g id="graph0" class="graph" transform="scale(1 1) rotate(0) translate(4 310)">
<title>Tree</title>
<polygon fill="white" stroke="transparent" points="-4,4 -4,-310 378.5,-310 378.5,4 -4,4"/>
<!-- 0 -->
<g id="node1" class="node">
<title>0</title>
<polygon fill="#79add2" stroke="black" points="228,-306 67,-306 67,-223 228,-223 228,-306"/>
<text text-anchor="middle" x="147.5" y="-290.8" font-family="Helvetica,sans-Serif" font-size="14.00">bill_length &lt;= 0.216</text>
<text text-anchor="middle" x="147.5" y="-275.8" font-family="Helvetica,sans-Serif" font-size="14.00">gini = 0.322</text>
<text text-anchor="middle" x="147.5" y="-260.8" font-family="Helvetica,sans-Serif" font-size="14.00">samples = 273</text>
<text text-anchor="middle" x="147.5" y="-245.8" font-family="Helvetica,sans-Serif" font-size="14.00">value = [218, 55]</text>
<text text-anchor="middle" x="147.5" y="-230.8" font-family="Helvetica,sans-Serif" font-size="14.00">class = Other</text>
</g>
<!-- 1 -->
<g id="node2" class="node">
<title>1</title>
<polygon fill="#2e80b9" stroke="black" points="131,-179.5 0,-179.5 0,-111.5 131,-111.5 131,-179.5"/>
<text text-anchor="middle" x="65.5" y="-164.3" font-family="Helvetica,sans-Serif" font-size="14.00">gini = 0.066</text>
<text text-anchor="middle" x="65.5" y="-149.3" font-family="Helvetica,sans-Serif" font-size="14.00">samples = 146</text>
<text text-anchor="middle" x="65.5" y="-134.3" font-family="Helvetica,sans-Serif" font-size="14.00">value = [141, 5]</text>
<text text-anchor="middle" x="65.5" y="-119.3" font-family="Helvetica,sans-Serif" font-size="14.00">class = Other</text>
</g>
<!-- 0&#45;&gt;1 -->
<g id="edge1" class="edge">
<title>0&#45;&gt;1</title>
<path fill="none" stroke="black" d="M119.05,-222.91C111.16,-211.65 102.59,-199.42 94.66,-188.11"/>
<polygon fill="black" stroke="black" points="97.35,-185.85 88.75,-179.67 91.62,-189.86 97.35,-185.85"/>
<text text-anchor="middle" x="84.41" y="-200.59" font-family="Helvetica,sans-Serif" font-size="14.00">True</text>
</g>
<!-- 2 -->
<g id="node3" class="node">
<title>2</title>
<polygon fill="#cfe2ef" stroke="black" points="312,-187 149,-187 149,-104 312,-104 312,-187"/>
<text text-anchor="middle" x="230.5" y="-171.8" font-family="Helvetica,sans-Serif" font-size="14.00">bill_depth &lt;= &#45;0.432</text>
<text text-anchor="middle" x="230.5" y="-156.8" font-family="Helvetica,sans-Serif" font-size="14.00">gini = 0.477</text>
<text text-anchor="middle" x="230.5" y="-141.8" font-family="Helvetica,sans-Serif" font-size="14.00">samples = 127</text>
<text text-anchor="middle" x="230.5" y="-126.8" font-family="Helvetica,sans-Serif" font-size="14.00">value = [77, 50]</text>
<text text-anchor="middle" x="230.5" y="-111.8" font-family="Helvetica,sans-Serif" font-size="14.00">class = Other</text>
</g>
<!-- 0&#45;&gt;2 -->
<g id="edge2" class="edge">
<title>0&#45;&gt;2</title>
<path fill="none" stroke="black" d="M176.3,-222.91C182.61,-214.01 189.35,-204.51 195.86,-195.33"/>
<polygon fill="black" stroke="black" points="198.82,-197.2 201.75,-187.02 193.11,-193.15 198.82,-197.2"/>
<text text-anchor="middle" x="205.94" y="-207.97" font-family="Helvetica,sans-Serif" font-size="14.00">False</text>
</g>
<!-- 3 -->
<g id="node4" class="node">
<title>3</title>
<polygon fill="#1f77b4" stroke="black" points="216.5,-68 94.5,-68 94.5,0 216.5,0 216.5,-68"/>
<text text-anchor="middle" x="155.5" y="-52.8" font-family="Helvetica,sans-Serif" font-size="14.00">gini = 0.000</text>
<text text-anchor="middle" x="155.5" y="-37.8" font-family="Helvetica,sans-Serif" font-size="14.00">samples = 66</text>
<text text-anchor="middle" x="155.5" y="-22.8" font-family="Helvetica,sans-Serif" font-size="14.00">value = [66, 0]</text>
<text text-anchor="middle" x="155.5" y="-7.8" font-family="Helvetica,sans-Serif" font-size="14.00">class = Other</text>
</g>
<!-- 2&#45;&gt;3 -->
<g id="edge3" class="edge">
<title>2&#45;&gt;3</title>
<path fill="none" stroke="black" d="M202.57,-103.73C196.51,-94.88 190.1,-85.51 184.01,-76.63"/>
<polygon fill="black" stroke="black" points="186.85,-74.57 178.31,-68.3 181.07,-78.53 186.85,-74.57"/>
</g>
<!-- 4 -->
<g id="node5" class="node">
<title>4</title>
<polygon fill="#ffad64" stroke="black" points="374.5,-68 234.5,-68 234.5,0 374.5,0 374.5,-68"/>
<text text-anchor="middle" x="304.5" y="-52.8" font-family="Helvetica,sans-Serif" font-size="14.00">gini = 0.296</text>
<text text-anchor="middle" x="304.5" y="-37.8" font-family="Helvetica,sans-Serif" font-size="14.00">samples = 61</text>
<text text-anchor="middle" x="304.5" y="-22.8" font-family="Helvetica,sans-Serif" font-size="14.00">value = [11, 50]</text>
<text text-anchor="middle" x="304.5" y="-7.8" font-family="Helvetica,sans-Serif" font-size="14.00">class = Chinstrap</text>
</g>
<!-- 2&#45;&gt;4 -->
<g id="edge4" class="edge">
<title>2&#45;&gt;4</title>
<path fill="none" stroke="black" d="M258.05,-103.73C264.03,-94.88 270.37,-85.51 276.37,-76.63"/>
<polygon fill="black" stroke="black" points="279.3,-78.54 282,-68.3 273.5,-74.63 279.3,-78.54"/>
</g>
</g>
</svg>
