<?xml version="1.0" encoding="UTF-8" standalone="no"?>
<!DOCTYPE svg PUBLIC "-//W3C//DTD SVG 1.1//EN"
 "http://www.w3.org/Graphics/SVG/1.1/DTD/svg11.dtd">
<!-- Generated by graphviz version 2.43.0 (0)
 -->
<!-- Title: Tree Pages: 1 -->
<svg width="1242pt" height="790pt"
 viewBox="0.00 0.00 1241.50 790.00" xmlns="http://www.w3.org/2000/svg" xmlns:xlink="http://www.w3.org/1999/xlink">
<g id="graph0" class="graph" transform="scale(1 1) rotate(0) translate(4 786)">
<title>Tree</title>
<polygon fill="white" stroke="transparent" points="-4,4 -4,-786 1237.5,-786 1237.5,4 -4,4"/>
<!-- 0 -->
<g id="node1" class="node">
<title>0</title>
<polygon fill="#ffffff" stroke="black" points="853.5,-782 667.5,-782 667.5,-699 853.5,-699 853.5,-782"/>
<text text-anchor="middle" x="760.5" y="-766.8" font-family="Helvetica,sans-Serif" font-size="14.00">flipper_length &lt;= 0.362</text>
<text text-anchor="middle" x="760.5" y="-751.8" font-family="Helvetica,sans-Serif" font-size="14.00">gini = 0.625</text>
<text text-anchor="middle" x="760.5" y="-736.8" font-family="Helvetica,sans-Serif" font-size="14.00">samples = 273</text>
<text text-anchor="middle" x="760.5" y="-721.8" font-family="Helvetica,sans-Serif" font-size="14.00">value = [130, 51, 92]</text>
<text text-anchor="middle" x="760.5" y="-706.8" font-family="Helvetica,sans-Serif" font-size="14.00">class = Adelie</text>
</g>
<!-- 1 -->
<g id="node2" class="node">
<title>1</title>
<polygon fill="#99c1dc" stroke="black" points="752,-663 585,-663 585,-580 752,-580 752,-663"/>
<text text-anchor="middle" x="668.5" y="-647.8" font-family="Helvetica,sans-Serif" font-size="14.00">bill_length &lt;= &#45;0.132</text>
<text text-anchor="middle" x="668.5" y="-632.8" font-family="Helvetica,sans-Serif" font-size="14.00">gini = 0.400</text>
<text text-anchor="middle" x="668.5" y="-617.8" font-family="Helvetica,sans-Serif" font-size="14.00">samples = 176</text>
<text text-anchor="middle" x="668.5" y="-602.8" font-family="Helvetica,sans-Serif" font-size="14.00">value = [128, 47, 1]</text>
<text text-anchor="middle" x="668.5" y="-587.8" font-family="Helvetica,sans-Serif" font-size="14.00">class = Adelie</text>
</g>
<!-- 0&#45;&gt;1 -->
<g id="edge1" class="edge">
<title>0&#45;&gt;1</title>
<path fill="none" stroke="black" d="M728.58,-698.91C721.52,-689.92 713.96,-680.32 706.68,-671.05"/>
<polygon fill="black" stroke="black" points="709.3,-668.72 700.36,-663.02 703.79,-673.05 709.3,-668.72"/>
<text text-anchor="middle" x="697.39" y="-684.14" font-family="Helvetica,sans-Serif" font-size="14.00">True</text>
</g>
<!-- 20 -->
<g id="node3" class="node">
<title>20</title>
<polygon fill="#46ab46" stroke="black" points="937,-663 770,-663 770,-580 937,-580 937,-663"/>
<text text-anchor="middle" x="853.5" y="-647.8" font-family="Helvetica,sans-Serif" font-size="14.00">bill_depth &lt;= 0.0755</text>
<text text-anchor="middle" x="853.5" y="-632.8" font-family="Helvetica,sans-Serif" font-size="14.00">gini = 0.118</text>
<text text-anchor="middle" x="853.5" y="-617.8" font-family="Helvetica,sans-Serif" font-size="14.00">samples = 97</text>
<text text-anchor="middle" x="853.5" y="-602.8" font-family="Helvetica,sans-Serif" font-size="14.00">value = [2, 4, 91]</text>
<text text-anchor="middle" x="853.5" y="-587.8" font-family="Helvetica,sans-Serif" font-size="14.00">class = Gentoo</text>
</g>
<!-- 0&#45;&gt;20 -->
<g id="edge2" class="edge">
<title>0&#45;&gt;20</title>
<path fill="none" stroke="black" d="M792.77,-698.91C799.91,-689.92 807.54,-680.32 814.91,-671.05"/>
<polygon fill="black" stroke="black" points="817.81,-673.03 821.29,-663.02 812.33,-668.67 817.81,-673.03"/>
<text text-anchor="middle" x="824.13" y="-684.16" font-family="Helvetica,sans-Serif" font-size="14.00">False</text>
</g>
<!-- 2 -->
<g id="node4" class="node">
<title>2</title>
<polygon fill="#3081b9" stroke="black" points="567,-544 400,-544 400,-461 567,-461 567,-544"/>
<text text-anchor="middle" x="483.5" y="-528.8" font-family="Helvetica,sans-Serif" font-size="14.00">bill_length &lt;= &#45;0.298</text>
<text text-anchor="middle" x="483.5" y="-513.8" font-family="Helvetica,sans-Serif" font-size="14.00">gini = 0.075</text>
<text text-anchor="middle" x="483.5" y="-498.8" font-family="Helvetica,sans-Serif" font-size="14.00">samples = 129</text>
<text text-anchor="middle" x="483.5" y="-483.8" font-family="Helvetica,sans-Serif" font-size="14.00">value = [124, 5, 0]</text>
<text text-anchor="middle" x="483.5" y="-468.8" font-family="Helvetica,sans-Serif" font-size="14.00">class = Adelie</text>
</g>
<!-- 1&#45;&gt;2 -->
<g id="edge3" class="edge">
<title>1&#45;&gt;2</title>
<path fill="none" stroke="black" d="M604.32,-579.91C588.82,-570.11 572.15,-559.56 556.29,-549.53"/>
<polygon fill="black" stroke="black" points="557.89,-546.41 547.57,-544.02 554.15,-552.32 557.89,-546.41"/>
</g>
<!-- 11 -->
<g id="node5" class="node">
<title>11</title>
<polygon fill="#ff9a41" stroke="black" points="758,-544 585,-544 585,-461 758,-461 758,-544"/>
<text text-anchor="middle" x="671.5" y="-528.8" font-family="Helvetica,sans-Serif" font-size="14.00">body_mass &lt;= &#45;0.127</text>
<text text-anchor="middle" x="671.5" y="-513.8" font-family="Helvetica,sans-Serif" font-size="14.00">gini = 0.194</text>
<text text-anchor="middle" x="671.5" y="-498.8" font-family="Helvetica,sans-Serif" font-size="14.00">samples = 47</text>
<text text-anchor="middle" x="671.5" y="-483.8" font-family="Helvetica,sans-Serif" font-size="14.00">value = [4, 42, 1]</text>
<text text-anchor="middle" x="671.5" y="-468.8" font-family="Helvetica,sans-Serif" font-size="14.00">class = Chinstrap</text>
</g>
<!-- 1&#45;&gt;11 -->
<g id="edge4" class="edge">
<title>1&#45;&gt;11</title>
<path fill="none" stroke="black" d="M669.54,-579.91C669.75,-571.56 669.98,-562.67 670.2,-554.02"/>
<polygon fill="black" stroke="black" points="673.7,-554.11 670.46,-544.02 666.71,-553.93 673.7,-554.11"/>
</g>
<!-- 21 -->
<g id="node22" class="node">
<title>21</title>
<polygon fill="#2ca02c" stroke="black" points="921.5,-536.5 781.5,-536.5 781.5,-468.5 921.5,-468.5 921.5,-536.5"/>
<text text-anchor="middle" x="851.5" y="-521.3" font-family="Helvetica,sans-Serif" font-size="14.00">gini = 0.000</text>
<text text-anchor="middle" x="851.5" y="-506.3" font-family="Helvetica,sans-Serif" font-size="14.00">samples = 91</text>
<text text-anchor="middle" x="851.5" y="-491.3" font-family="Helvetica,sans-Serif" font-size="14.00">value = [0, 0, 91]</text>
<text text-anchor="middle" x="851.5" y="-476.3" font-family="Helvetica,sans-Serif" font-size="14.00">class = Gentoo</text>
</g>
<!-- 20&#45;&gt;21 -->
<g id="edge21" class="edge">
<title>20&#45;&gt;21</title>
<path fill="none" stroke="black" d="M852.81,-579.91C852.62,-569.2 852.43,-557.62 852.24,-546.78"/>
<polygon fill="black" stroke="black" points="855.74,-546.61 852.07,-536.67 848.74,-546.73 855.74,-546.61"/>
</g>
<!-- 22 -->
<g id="node23" class="node">
<title>22</title>
<polygon fill="#ffd4ae" stroke="black" points="1097.5,-544 939.5,-544 939.5,-461 1097.5,-461 1097.5,-544"/>
<text text-anchor="middle" x="1018.5" y="-528.8" font-family="Helvetica,sans-Serif" font-size="14.00">bill_depth &lt;= 0.887</text>
<text text-anchor="middle" x="1018.5" y="-513.8" font-family="Helvetica,sans-Serif" font-size="14.00">gini = 0.444</text>
<text text-anchor="middle" x="1018.5" y="-498.8" font-family="Helvetica,sans-Serif" font-size="14.00">samples = 6</text>
<text text-anchor="middle" x="1018.5" y="-483.8" font-family="Helvetica,sans-Serif" font-size="14.00">value = [2, 4, 0]</text>
<text text-anchor="middle" x="1018.5" y="-468.8" font-family="Helvetica,sans-Serif" font-size="14.00">class = Chinstrap</text>
</g>
<!-- 20&#45;&gt;22 -->
<g id="edge22" class="edge">
<title>20&#45;&gt;22</title>
<path fill="none" stroke="black" d="M910.75,-579.91C924.44,-570.2 939.16,-559.76 953.19,-549.81"/>
<polygon fill="black" stroke="black" points="955.22,-552.66 961.36,-544.02 951.17,-546.95 955.22,-552.66"/>
</g>
<!-- 3 -->
<g id="node6" class="node">
<title>3</title>
<polygon fill="#2279b5" stroke="black" points="385.5,-425 231.5,-425 231.5,-342 385.5,-342 385.5,-425"/>
<text text-anchor="middle" x="308.5" y="-409.8" font-family="Helvetica,sans-Serif" font-size="14.00">bill_depth &lt;= &#45;0.28</text>
<text text-anchor="middle" x="308.5" y="-394.8" font-family="Helvetica,sans-Serif" font-size="14.00">gini = 0.017</text>
<text text-anchor="middle" x="308.5" y="-379.8" font-family="Helvetica,sans-Serif" font-size="14.00">samples = 119</text>
<text text-anchor="middle" x="308.5" y="-364.8" font-family="Helvetica,sans-Serif" font-size="14.00">value = [118, 1, 0]</text>
<text text-anchor="middle" x="308.5" y="-349.8" font-family="Helvetica,sans-Serif" font-size="14.00">class = Adelie</text>
</g>
<!-- 2&#45;&gt;3 -->
<g id="edge5" class="edge">
<title>2&#45;&gt;3</title>
<path fill="none" stroke="black" d="M422.78,-460.91C408.26,-451.2 392.65,-440.76 377.77,-430.81"/>
<polygon fill="black" stroke="black" points="379.37,-427.67 369.11,-425.02 375.48,-433.49 379.37,-427.67"/>
</g>
<!-- 8 -->
<g id="node7" class="node">
<title>8</title>
<polygon fill="#d2e3f0" stroke="black" points="571,-425 404,-425 404,-342 571,-342 571,-425"/>
<text text-anchor="middle" x="487.5" y="-409.8" font-family="Helvetica,sans-Serif" font-size="14.00">bill_depth &lt;= 0.0755</text>
<text text-anchor="middle" x="487.5" y="-394.8" font-family="Helvetica,sans-Serif" font-size="14.00">gini = 0.480</text>
<text text-anchor="middle" x="487.5" y="-379.8" font-family="Helvetica,sans-Serif" font-size="14.00">samples = 10</text>
<text text-anchor="middle" x="487.5" y="-364.8" font-family="Helvetica,sans-Serif" font-size="14.00">value = [6, 4, 0]</text>
<text text-anchor="middle" x="487.5" y="-349.8" font-family="Helvetica,sans-Serif" font-size="14.00">class = Adelie</text>
</g>
<!-- 2&#45;&gt;8 -->
<g id="edge6" class="edge">
<title>2&#45;&gt;8</title>
<path fill="none" stroke="black" d="M484.89,-460.91C485.17,-452.56 485.48,-443.67 485.77,-435.02"/>
<polygon fill="black" stroke="black" points="489.27,-435.13 486.11,-425.02 482.27,-434.9 489.27,-435.13"/>
</g>
<!-- 12 -->
<g id="node14" class="node">
<title>12</title>
<polygon fill="#ff7f0e" stroke="black" points="737.5,-417.5 597.5,-417.5 597.5,-349.5 737.5,-349.5 737.5,-417.5"/>
<text text-anchor="middle" x="667.5" y="-402.3" font-family="Helvetica,sans-Serif" font-size="14.00">gini = 0.000</text>
<text text-anchor="middle" x="667.5" y="-387.3" font-family="Helvetica,sans-Serif" font-size="14.00">samples = 38</text>
<text text-anchor="middle" x="667.5" y="-372.3" font-family="Helvetica,sans-Serif" font-size="14.00">value = [0, 38, 0]</text>
<text text-anchor="middle" x="667.5" y="-357.3" font-family="Helvetica,sans-Serif" font-size="14.00">class = Chinstrap</text>
</g>
<!-- 11&#45;&gt;12 -->
<g id="edge13" class="edge">
<title>11&#45;&gt;12</title>
<path fill="none" stroke="black" d="M670.11,-460.91C669.75,-450.2 669.35,-438.62 668.98,-427.78"/>
<polygon fill="black" stroke="black" points="672.47,-427.54 668.63,-417.67 665.48,-427.78 672.47,-427.54"/>
</g>
<!-- 13 -->
<g id="node15" class="node">
<title>13</title>
<polygon fill="#ffffff" stroke="black" points="917,-425 756,-425 756,-342 917,-342 917,-425"/>
<text text-anchor="middle" x="836.5" y="-409.8" font-family="Helvetica,sans-Serif" font-size="14.00">bill_length &lt;= 0.344</text>
<text text-anchor="middle" x="836.5" y="-394.8" font-family="Helvetica,sans-Serif" font-size="14.00">gini = 0.593</text>
<text text-anchor="middle" x="836.5" y="-379.8" font-family="Helvetica,sans-Serif" font-size="14.00">samples = 9</text>
<text text-anchor="middle" x="836.5" y="-364.8" font-family="Helvetica,sans-Serif" font-size="14.00">value = [4, 4, 1]</text>
<text text-anchor="middle" x="836.5" y="-349.8" font-family="Helvetica,sans-Serif" font-size="14.00">class = Adelie</text>
</g>
<!-- 11&#45;&gt;13 -->
<g id="edge14" class="edge">
<title>11&#45;&gt;13</title>
<path fill="none" stroke="black" d="M728.75,-460.91C742.44,-451.2 757.16,-440.76 771.19,-430.81"/>
<polygon fill="black" stroke="black" points="773.22,-433.66 779.36,-425.02 769.17,-427.95 773.22,-433.66"/>
</g>
<!-- 4 -->
<g id="node8" class="node">
<title>4</title>
<polygon fill="#5095c4" stroke="black" points="219.5,-306 65.5,-306 65.5,-223 219.5,-223 219.5,-306"/>
<text text-anchor="middle" x="142.5" y="-290.8" font-family="Helvetica,sans-Serif" font-size="14.00">bill_depth &lt;= &#45;0.33</text>
<text text-anchor="middle" x="142.5" y="-275.8" font-family="Helvetica,sans-Serif" font-size="14.00">gini = 0.198</text>
<text text-anchor="middle" x="142.5" y="-260.8" font-family="Helvetica,sans-Serif" font-size="14.00">samples = 9</text>
<text text-anchor="middle" x="142.5" y="-245.8" font-family="Helvetica,sans-Serif" font-size="14.00">value = [8, 1, 0]</text>
<text text-anchor="middle" x="142.5" y="-230.8" font-family="Helvetica,sans-Serif" font-size="14.00">class = Adelie</text>
</g>
<!-- 3&#45;&gt;4 -->
<g id="edge7" class="edge">
<title>3&#45;&gt;4</title>
<path fill="none" stroke="black" d="M250.91,-341.91C237.13,-332.2 222.32,-321.76 208.21,-311.81"/>
<polygon fill="black" stroke="black" points="210.18,-308.92 199.99,-306.02 206.15,-314.64 210.18,-308.92"/>
</g>
<!-- 7 -->
<g id="node9" class="node">
<title>7</title>
<polygon fill="#1f77b4" stroke="black" points="387,-298.5 238,-298.5 238,-230.5 387,-230.5 387,-298.5"/>
<text text-anchor="middle" x="312.5" y="-283.3" font-family="Helvetica,sans-Serif" font-size="14.00">gini = 0.000</text>
<text text-anchor="middle" x="312.5" y="-268.3" font-family="Helvetica,sans-Serif" font-size="14.00">samples = 110</text>
<text text-anchor="middle" x="312.5" y="-253.3" font-family="Helvetica,sans-Serif" font-size="14.00">value = [110, 0, 0]</text>
<text text-anchor="middle" x="312.5" y="-238.3" font-family="Helvetica,sans-Serif" font-size="14.00">class = Adelie</text>
</g>
<!-- 3&#45;&gt;7 -->
<g id="edge8" class="edge">
<title>3&#45;&gt;7</title>
<path fill="none" stroke="black" d="M309.89,-341.91C310.25,-331.2 310.65,-319.62 311.02,-308.78"/>
<polygon fill="black" stroke="black" points="314.52,-308.78 311.37,-298.67 307.53,-308.54 314.52,-308.78"/>
</g>
<!-- 9 -->
<g id="node12" class="node">
<title>9</title>
<polygon fill="#ff7f0e" stroke="black" points="553.5,-298.5 413.5,-298.5 413.5,-230.5 553.5,-230.5 553.5,-298.5"/>
<text text-anchor="middle" x="483.5" y="-283.3" font-family="Helvetica,sans-Serif" font-size="14.00">gini = 0.000</text>
<text text-anchor="middle" x="483.5" y="-268.3" font-family="Helvetica,sans-Serif" font-size="14.00">samples = 4</text>
<text text-anchor="middle" x="483.5" y="-253.3" font-family="Helvetica,sans-Serif" font-size="14.00">value = [0, 4, 0]</text>
<text text-anchor="middle" x="483.5" y="-238.3" font-family="Helvetica,sans-Serif" font-size="14.00">class = Chinstrap</text>
</g>
<!-- 8&#45;&gt;9 -->
<g id="edge11" class="edge">
<title>8&#45;&gt;9</title>
<path fill="none" stroke="black" d="M486.11,-341.91C485.75,-331.2 485.35,-319.62 484.98,-308.78"/>
<polygon fill="black" stroke="black" points="488.47,-308.54 484.63,-298.67 481.48,-308.78 488.47,-308.54"/>
</g>
<!-- 10 -->
<g id="node13" class="node">
<title>10</title>
<polygon fill="#1f77b4" stroke="black" points="703,-298.5 572,-298.5 572,-230.5 703,-230.5 703,-298.5"/>
<text text-anchor="middle" x="637.5" y="-283.3" font-family="Helvetica,sans-Serif" font-size="14.00">gini = 0.000</text>
<text text-anchor="middle" x="637.5" y="-268.3" font-family="Helvetica,sans-Serif" font-size="14.00">samples = 6</text>
<text text-anchor="middle" x="637.5" y="-253.3" font-family="Helvetica,sans-Serif" font-size="14.00">value = [6, 0, 0]</text>
<text text-anchor="middle" x="637.5" y="-238.3" font-family="Helvetica,sans-Serif" font-size="14.00">class = Adelie</text>
</g>
<!-- 8&#45;&gt;10 -->
<g id="edge12" class="edge">
<title>8&#45;&gt;10</title>
<path fill="none" stroke="black" d="M539.54,-341.91C554.82,-329.99 571.51,-316.98 586.71,-305.12"/>
<polygon fill="black" stroke="black" points="589.25,-307.58 594.98,-298.67 584.94,-302.06 589.25,-307.58"/>
</g>
<!-- 5 -->
<g id="node10" class="node">
<title>5</title>
<polygon fill="#1f77b4" stroke="black" points="131,-179.5 0,-179.5 0,-111.5 131,-111.5 131,-179.5"/>
<text text-anchor="middle" x="65.5" y="-164.3" font-family="Helvetica,sans-Serif" font-size="14.00">gini = 0.000</text>
<text text-anchor="middle" x="65.5" y="-149.3" font-family="Helvetica,sans-Serif" font-size="14.00">samples = 8</text>
<text text-anchor="middle" x="65.5" y="-134.3" font-family="Helvetica,sans-Serif" font-size="14.00">value = [8, 0, 0]</text>
<text text-anchor="middle" x="65.5" y="-119.3" font-family="Helvetica,sans-Serif" font-size="14.00">class = Adelie</text>
</g>
<!-- 4&#45;&gt;5 -->
<g id="edge9" class="edge">
<title>4&#45;&gt;5</title>
<path fill="none" stroke="black" d="M115.79,-222.91C108.38,-211.65 100.33,-199.42 92.88,-188.11"/>
<polygon fill="black" stroke="black" points="95.75,-186.1 87.33,-179.67 89.9,-189.94 95.75,-186.1"/>
</g>
<!-- 6 -->
<g id="node11" class="node">
<title>6</title>
<polygon fill="#ff7f0e" stroke="black" points="289.5,-179.5 149.5,-179.5 149.5,-111.5 289.5,-111.5 289.5,-179.5"/>
<text text-anchor="middle" x="219.5" y="-164.3" font-family="Helvetica,sans-Serif" font-size="14.00">gini = 0.000</text>
<text text-anchor="middle" x="219.5" y="-149.3" font-family="Helvetica,sans-Serif" font-size="14.00">samples = 1</text>
<text text-anchor="middle" x="219.5" y="-134.3" font-family="Helvetica,sans-Serif" font-size="14.00">value = [0, 1, 0]</text>
<text text-anchor="middle" x="219.5" y="-119.3" font-family="Helvetica,sans-Serif" font-size="14.00">class = Chinstrap</text>
</g>
<!-- 4&#45;&gt;6 -->
<g id="edge10" class="edge">
<title>4&#45;&gt;6</title>
<path fill="none" stroke="black" d="M169.21,-222.91C176.62,-211.65 184.67,-199.42 192.12,-188.11"/>
<polygon fill="black" stroke="black" points="195.1,-189.94 197.67,-179.67 189.25,-186.1 195.1,-189.94"/>
</g>
<!-- 14 -->
<g id="node16" class="node">
<title>14</title>
<polygon fill="#1f77b4" stroke="black" points="877,-298.5 746,-298.5 746,-230.5 877,-230.5 877,-298.5"/>
<text text-anchor="middle" x="811.5" y="-283.3" font-family="Helvetica,sans-Serif" font-size="14.00">gini = 0.000</text>
<text text-anchor="middle" x="811.5" y="-268.3" font-family="Helvetica,sans-Serif" font-size="14.00">samples = 3</text>
<text text-anchor="middle" x="811.5" y="-253.3" font-family="Helvetica,sans-Serif" font-size="14.00">value = [3, 0, 0]</text>
<text text-anchor="middle" x="811.5" y="-238.3" font-family="Helvetica,sans-Serif" font-size="14.00">class = Adelie</text>
</g>
<!-- 13&#45;&gt;14 -->
<g id="edge15" class="edge">
<title>13&#45;&gt;14</title>
<path fill="none" stroke="black" d="M827.83,-341.91C825.54,-331.2 823.06,-319.62 820.75,-308.78"/>
<polygon fill="black" stroke="black" points="824.1,-307.71 818.59,-298.67 817.25,-309.18 824.1,-307.71"/>
</g>
<!-- 15 -->
<g id="node17" class="node">
<title>15</title>
<polygon fill="#ffd4ae" stroke="black" points="1040,-306 895,-306 895,-223 1040,-223 1040,-306"/>
<text text-anchor="middle" x="967.5" y="-290.8" font-family="Helvetica,sans-Serif" font-size="14.00">bill_depth &lt;= &#45;1.4</text>
<text text-anchor="middle" x="967.5" y="-275.8" font-family="Helvetica,sans-Serif" font-size="14.00">gini = 0.500</text>
<text text-anchor="middle" x="967.5" y="-260.8" font-family="Helvetica,sans-Serif" font-size="14.00">samples = 6</text>
<text text-anchor="middle" x="967.5" y="-245.8" font-family="Helvetica,sans-Serif" font-size="14.00">value = [1, 4, 1]</text>
<text text-anchor="middle" x="967.5" y="-230.8" font-family="Helvetica,sans-Serif" font-size="14.00">class = Chinstrap</text>
</g>
<!-- 13&#45;&gt;15 -->
<g id="edge16" class="edge">
<title>13&#45;&gt;15</title>
<path fill="none" stroke="black" d="M881.95,-341.91C892.42,-332.56 903.64,-322.54 914.4,-312.93"/>
<polygon fill="black" stroke="black" points="917,-315.29 922.13,-306.02 912.34,-310.07 917,-315.29"/>
</g>
<!-- 16 -->
<g id="node18" class="node">
<title>16</title>
<polygon fill="#2ca02c" stroke="black" points="954,-179.5 823,-179.5 823,-111.5 954,-111.5 954,-179.5"/>
<text text-anchor="middle" x="888.5" y="-164.3" font-family="Helvetica,sans-Serif" font-size="14.00">gini = 0.000</text>
<text text-anchor="middle" x="888.5" y="-149.3" font-family="Helvetica,sans-Serif" font-size="14.00">samples = 1</text>
<text text-anchor="middle" x="888.5" y="-134.3" font-family="Helvetica,sans-Serif" font-size="14.00">value = [0, 0, 1]</text>
<text text-anchor="middle" x="888.5" y="-119.3" font-family="Helvetica,sans-Serif" font-size="14.00">class = Gentoo</text>
</g>
<!-- 15&#45;&gt;16 -->
<g id="edge17" class="edge">
<title>15&#45;&gt;16</title>
<path fill="none" stroke="black" d="M940.09,-222.91C932.49,-211.65 924.23,-199.42 916.59,-188.11"/>
<polygon fill="black" stroke="black" points="919.39,-186 910.89,-179.67 913.59,-189.91 919.39,-186"/>
</g>
<!-- 17 -->
<g id="node19" class="node">
<title>17</title>
<polygon fill="#ffb26e" stroke="black" points="1121,-187 972,-187 972,-104 1121,-104 1121,-187"/>
<text text-anchor="middle" x="1046.5" y="-171.8" font-family="Helvetica,sans-Serif" font-size="14.00">bill_depth &lt;= 1.85</text>
<text text-anchor="middle" x="1046.5" y="-156.8" font-family="Helvetica,sans-Serif" font-size="14.00">gini = 0.320</text>
<text text-anchor="middle" x="1046.5" y="-141.8" font-family="Helvetica,sans-Serif" font-size="14.00">samples = 5</text>
<text text-anchor="middle" x="1046.5" y="-126.8" font-family="Helvetica,sans-Serif" font-size="14.00">value = [1, 4, 0]</text>
<text text-anchor="middle" x="1046.5" y="-111.8" font-family="Helvetica,sans-Serif" font-size="14.00">class = Chinstrap</text>
</g>
<!-- 15&#45;&gt;17 -->
<g id="edge18" class="edge">
<title>15&#45;&gt;17</title>
<path fill="none" stroke="black" d="M994.91,-222.91C1000.91,-214.01 1007.33,-204.51 1013.53,-195.33"/>
<polygon fill="black" stroke="black" points="1016.44,-197.27 1019.14,-187.02 1010.64,-193.35 1016.44,-197.27"/>
</g>
<!-- 18 -->
<g id="node20" class="node">
<title>18</title>
<polygon fill="#ff7f0e" stroke="black" points="1039.5,-68 899.5,-68 899.5,0 1039.5,0 1039.5,-68"/>
<text text-anchor="middle" x="969.5" y="-52.8" font-family="Helvetica,sans-Serif" font-size="14.00">gini = 0.000</text>
<text text-anchor="middle" x="969.5" y="-37.8" font-family="Helvetica,sans-Serif" font-size="14.00">samples = 4</text>
<text text-anchor="middle" x="969.5" y="-22.8" font-family="Helvetica,sans-Serif" font-size="14.00">value = [0, 4, 0]</text>
<text text-anchor="middle" x="969.5" y="-7.8" font-family="Helvetica,sans-Serif" font-size="14.00">class = Chinstrap</text>
</g>
<!-- 17&#45;&gt;18 -->
<g id="edge19" class="edge">
<title>17&#45;&gt;18</title>
<path fill="none" stroke="black" d="M1017.83,-103.73C1011.61,-94.88 1005.02,-85.51 998.77,-76.63"/>
<polygon fill="black" stroke="black" points="1001.53,-74.47 992.92,-68.3 995.81,-78.49 1001.53,-74.47"/>
</g>
<!-- 19 -->
<g id="node21" class="node">
<title>19</title>
<polygon fill="#1f77b4" stroke="black" points="1189,-68 1058,-68 1058,0 1189,0 1189,-68"/>
<text text-anchor="middle" x="1123.5" y="-52.8" font-family="Helvetica,sans-Serif" font-size="14.00">gini = 0.000</text>
<text text-anchor="middle" x="1123.5" y="-37.8" font-family="Helvetica,sans-Serif" font-size="14.00">samples = 1</text>
<text text-anchor="middle" x="1123.5" y="-22.8" font-family="Helvetica,sans-Serif" font-size="14.00">value = [1, 0, 0]</text>
<text text-anchor="middle" x="1123.5" y="-7.8" font-family="Helvetica,sans-Serif" font-size="14.00">class = Adelie</text>
</g>
<!-- 17&#45;&gt;19 -->
<g id="edge20" class="edge">
<title>17&#45;&gt;19</title>
<path fill="none" stroke="black" d="M1075.17,-103.73C1081.39,-94.88 1087.98,-85.51 1094.23,-76.63"/>
<polygon fill="black" stroke="black" points="1097.19,-78.49 1100.08,-68.3 1091.47,-74.47 1097.19,-78.49"/>
</g>
<!-- 23 -->
<g id="node24" class="node">
<title>23</title>
<polygon fill="#1f77b4" stroke="black" points="1075,-417.5 944,-417.5 944,-349.5 1075,-349.5 1075,-417.5"/>
<text text-anchor="middle" x="1009.5" y="-402.3" font-family="Helvetica,sans-Serif" font-size="14.00">gini = 0.000</text>
<text text-anchor="middle" x="1009.5" y="-387.3" font-family="Helvetica,sans-Serif" font-size="14.00">samples = 2</text>
<text text-anchor="middle" x="1009.5" y="-372.3" font-family="Helvetica,sans-Serif" font-size="14.00">value = [2, 0, 0]</text>
<text text-anchor="middle" x="1009.5" y="-357.3" font-family="Helvetica,sans-Serif" font-size="14.00">class = Adelie</text>
</g>
<!-- 22&#45;&gt;23 -->
<g id="edge23" class="edge">
<title>22&#45;&gt;23</title>
<path fill="none" stroke="black" d="M1015.38,-460.91C1014.55,-450.2 1013.66,-438.62 1012.83,-427.78"/>
<polygon fill="black" stroke="black" points="1016.31,-427.37 1012.05,-417.67 1009.33,-427.91 1016.31,-427.37"/>
</g>
<!-- 24 -->
<g id="node25" class="node">
<title>24</title>
<polygon fill="#ff7f0e" stroke="black" points="1233.5,-417.5 1093.5,-417.5 1093.5,-349.5 1233.5,-349.5 1233.5,-417.5"/>
<text text-anchor="middle" x="1163.5" y="-402.3" font-family="Helvetica,sans-Serif" font-size="14.00">gini = 0.000</text>
<text text-anchor="middle" x="1163.5" y="-387.3" font-family="Helvetica,sans-Serif" font-size="14.00">samples = 4</text>
<text text-anchor="middle" x="1163.5" y="-372.3" font-family="Helvetica,sans-Serif" font-size="14.00">value = [0, 4, 0]</text>
<text text-anchor="middle" x="1163.5" y="-357.3" font-family="Helvetica,sans-Serif" font-size="14.00">class = Chinstrap</text>
</g>
<!-- 22&#45;&gt;24 -->
<g id="edge24" class="edge">
<title>22&#45;&gt;24</title>
<path fill="none" stroke="black" d="M1068.81,-460.91C1083.58,-448.99 1099.71,-435.98 1114.4,-424.12"/>
<polygon fill="black" stroke="black" points="1116.81,-426.67 1122.4,-417.67 1112.42,-421.22 1116.81,-426.67"/>
</g>
</g>
</svg>
