<?xml version="1.0" encoding="UTF-8" standalone="no"?>
<!DOCTYPE svg PUBLIC "-//W3C//DTD SVG 1.1//EN"
 "http://www.w3.org/Graphics/SVG/1.1/DTD/svg11.dtd">
<!-- Generated by graphviz version 2.43.0 (0)
 -->
<!-- Title: Tree Pages: 1 -->
<svg width="280pt" height="195pt"
 viewBox="0.00 0.00 279.50 195.00" xmlns="http://www.w3.org/2000/svg" xmlns:xlink="http://www.w3.org/1999/xlink">
<g id="graph0" class="graph" transform="scale(1 1) rotate(0) translate(4 191)">
<title>Tree</title>
<polygon fill="white" stroke="transparent" points="-4,4 -4,-191 275.5,-191 275.5,4 -4,4"/>
<!-- 0 -->
<g id="node1" class="node">
<title>0</title>
<polygon fill="#c3daea" stroke="black" points="230.5,-187 44.5,-187 44.5,-104 230.5,-104 230.5,-187"/>
<text text-anchor="middle" x="137.5" y="-171.8" font-family="Helvetica,sans-Serif" font-size="14.00">flipper_length &lt;= 0.433</text>
<text text-anchor="middle" x="137.5" y="-156.8" font-family="Helvetica,sans-Serif" font-size="14.00">gini = 0.464</text>
<text text-anchor="middle" x="137.5" y="-141.8" font-family="Helvetica,sans-Serif" font-size="14.00">samples = 273</text>
<text text-anchor="middle" x="137.5" y="-126.8" font-family="Helvetica,sans-Serif" font-size="14.00">value = [173, 100]</text>
<text text-anchor="middle" x="137.5" y="-111.8" font-family="Helvetica,sans-Serif" font-size="14.00">class = Other</text>
</g>
<!-- 1 -->
<g id="node2" class="node">
<title>1</title>
<polygon fill="#2178b4" stroke="black" points="131,-68 0,-68 0,0 131,0 131,-68"/>
<text text-anchor="middle" x="65.5" y="-52.8" font-family="Helvetica,sans-Serif" font-size="14.00">gini = 0.011</text>
<text text-anchor="middle" x="65.5" y="-37.8" font-family="Helvetica,sans-Serif" font-size="14.00">samples = 173</text>
<text text-anchor="middle" x="65.5" y="-22.8" font-family="Helvetica,sans-Serif" font-size="14.00">value = [172, 1]</text>
<text text-anchor="middle" x="65.5" y="-7.8" font-family="Helvetica,sans-Serif" font-size="14.00">class = Other</text>
</g>
<!-- 0&#45;&gt;1 -->
<g id="edge1" class="edge">
<title>0&#45;&gt;1</title>
<path fill="none" stroke="black" d="M110.69,-103.73C104.93,-94.97 98.84,-85.7 93.05,-76.91"/>
<polygon fill="black" stroke="black" points="95.81,-74.73 87.4,-68.3 89.97,-78.58 95.81,-74.73"/>
<text text-anchor="middle" x="82.34" y="-89.08" font-family="Helvetica,sans-Serif" font-size="14.00">True</text>
</g>
<!-- 2 -->
<g id="node3" class="node">
<title>2</title>
<polygon fill="#ff8112" stroke="black" points="271.5,-68 149.5,-68 149.5,0 271.5,0 271.5,-68"/>
<text text-anchor="middle" x="210.5" y="-52.8" font-family="Helvetica,sans-Serif" font-size="14.00">gini = 0.020</text>
<text text-anchor="middle" x="210.5" y="-37.8" font-family="Helvetica,sans-Serif" font-size="14.00">samples = 100</text>
<text text-anchor="middle" x="210.5" y="-22.8" font-family="Helvetica,sans-Serif" font-size="14.00">value = [1, 99]</text>
<text text-anchor="middle" x="210.5" y="-7.8" font-family="Helvetica,sans-Serif" font-size="14.00">class = Gentoo</text>
</g>
<!-- 0&#45;&gt;2 -->
<g id="edge2" class="edge">
<title>0&#45;&gt;2</title>
<path fill="none" stroke="black" d="M164.68,-103.73C170.58,-94.88 176.83,-85.51 182.75,-76.63"/>
<polygon fill="black" stroke="black" points="185.67,-78.56 188.3,-68.3 179.84,-74.68 185.67,-78.56"/>
<text text-anchor="middle" x="193.2" y="-89.11" font-family="Helvetica,sans-Serif" font-size="14.00">False</text>
</g>
</g>
</svg>
