<?xml version="1.0" encoding="UTF-8" standalone="no"?>
<!DOCTYPE svg PUBLIC "-//W3C//DTD SVG 1.1//EN"
 "http://www.w3.org/Graphics/SVG/1.1/DTD/svg11.dtd">
<!-- Generated by graphviz version 2.43.0 (0)
 -->
<!-- Title: Tree Pages: 1 -->
<svg width="647pt" height="314pt"
 viewBox="0.00 0.00 646.50 314.00" xmlns="http://www.w3.org/2000/svg" xmlns:xlink="http://www.w3.org/1999/xlink">
<g id="graph0" class="graph" transform="scale(1 1) rotate(0) translate(4 310)">
<title>Tree</title>
<polygon fill="white" stroke="transparent" points="-4,4 -4,-310 642.5,-310 642.5,4 -4,4"/>
<!-- 0 -->
<g id="node1" class="node">
<title>0</title>
<polygon fill="#ffffff" stroke="black" points="416.5,-306 230.5,-306 230.5,-223 416.5,-223 416.5,-306"/>
<text text-anchor="middle" x="323.5" y="-290.8" font-family="Helvetica,sans-Serif" font-size="14.00">flipper_length &lt;= 0.291</text>
<text text-anchor="middle" x="323.5" y="-275.8" font-family="Helvetica,sans-Serif" font-size="14.00">gini = 0.635</text>
<text text-anchor="middle" x="323.5" y="-260.8" font-family="Helvetica,sans-Serif" font-size="14.00">samples = 273</text>
<text text-anchor="middle" x="323.5" y="-245.8" font-family="Helvetica,sans-Serif" font-size="14.00">value = [125, 56, 92]</text>
<text text-anchor="middle" x="323.5" y="-230.8" font-family="Helvetica,sans-Serif" font-size="14.00">class = Adelie</text>
</g>
<!-- 1 -->
<g id="node2" class="node">
<title>1</title>
<polygon fill="#a5c8e1" stroke="black" points="313,-187 146,-187 146,-104 313,-104 313,-187"/>
<text text-anchor="middle" x="229.5" y="-171.8" font-family="Helvetica,sans-Serif" font-size="14.00">bill_length &lt;= &#45;0.132</text>
<text text-anchor="middle" x="229.5" y="-156.8" font-family="Helvetica,sans-Serif" font-size="14.00">gini = 0.424</text>
<text text-anchor="middle" x="229.5" y="-141.8" font-family="Helvetica,sans-Serif" font-size="14.00">samples = 176</text>
<text text-anchor="middle" x="229.5" y="-126.8" font-family="Helvetica,sans-Serif" font-size="14.00">value = [123, 52, 1]</text>
<text text-anchor="middle" x="229.5" y="-111.8" font-family="Helvetica,sans-Serif" font-size="14.00">class = Adelie</text>
</g>
<!-- 0&#45;&gt;1 -->
<g id="edge1" class="edge">
<title>0&#45;&gt;1</title>
<path fill="none" stroke="black" d="M290.89,-222.91C283.67,-213.92 275.95,-204.32 268.51,-195.05"/>
<polygon fill="black" stroke="black" points="271.05,-192.62 262.06,-187.02 265.59,-197.01 271.05,-192.62"/>
<text text-anchor="middle" x="259.35" y="-208.17" font-family="Helvetica,sans-Serif" font-size="14.00">True</text>
</g>
<!-- 4 -->
<g id="node3" class="node">
<title>4</title>
<polygon fill="#46ab46" stroke="black" points="503.5,-187 331.5,-187 331.5,-104 503.5,-104 503.5,-187"/>
<text text-anchor="middle" x="417.5" y="-171.8" font-family="Helvetica,sans-Serif" font-size="14.00">bill_depth &lt;= &#45;0.0259</text>
<text text-anchor="middle" x="417.5" y="-156.8" font-family="Helvetica,sans-Serif" font-size="14.00">gini = 0.118</text>
<text text-anchor="middle" x="417.5" y="-141.8" font-family="Helvetica,sans-Serif" font-size="14.00">samples = 97</text>
<text text-anchor="middle" x="417.5" y="-126.8" font-family="Helvetica,sans-Serif" font-size="14.00">value = [2, 4, 91]</text>
<text text-anchor="middle" x="417.5" y="-111.8" font-family="Helvetica,sans-Serif" font-size="14.00">class = Gentoo</text>
</g>
<!-- 0&#45;&gt;4 -->
<g id="edge2" class="edge">
<title>0&#45;&gt;4</title>
<path fill="none" stroke="black" d="M356.11,-222.91C363.33,-213.92 371.05,-204.32 378.49,-195.05"/>
<polygon fill="black" stroke="black" points="381.41,-197.01 384.94,-187.02 375.95,-192.62 381.41,-197.01"/>
<text text-anchor="middle" x="387.65" y="-208.17" font-family="Helvetica,sans-Serif" font-size="14.00">False</text>
</g>
<!-- 2 -->
<g id="node4" class="node">
<title>2</title>
<polygon fill="#2d7fb8" stroke="black" points="149,-68 0,-68 0,0 149,0 149,-68"/>
<text text-anchor="middle" x="74.5" y="-52.8" font-family="Helvetica,sans-Serif" font-size="14.00">gini = 0.062</text>
<text text-anchor="middle" x="74.5" y="-37.8" font-family="Helvetica,sans-Serif" font-size="14.00">samples = 125</text>
<text text-anchor="middle" x="74.5" y="-22.8" font-family="Helvetica,sans-Serif" font-size="14.00">value = [121, 4, 0]</text>
<text text-anchor="middle" x="74.5" y="-7.8" font-family="Helvetica,sans-Serif" font-size="14.00">class = Adelie</text>
</g>
<!-- 1&#45;&gt;2 -->
<g id="edge3" class="edge">
<title>1&#45;&gt;2</title>
<path fill="none" stroke="black" d="M171.78,-103.73C158.1,-94.06 143.53,-83.77 129.95,-74.17"/>
<polygon fill="black" stroke="black" points="131.82,-71.21 121.64,-68.3 127.78,-76.93 131.82,-71.21"/>
</g>
<!-- 3 -->
<g id="node5" class="node">
<title>3</title>
<polygon fill="#ff8e2a" stroke="black" points="307.5,-68 167.5,-68 167.5,0 307.5,0 307.5,-68"/>
<text text-anchor="middle" x="237.5" y="-52.8" font-family="Helvetica,sans-Serif" font-size="14.00">gini = 0.112</text>
<text text-anchor="middle" x="237.5" y="-37.8" font-family="Helvetica,sans-Serif" font-size="14.00">samples = 51</text>
<text text-anchor="middle" x="237.5" y="-22.8" font-family="Helvetica,sans-Serif" font-size="14.00">value = [2, 48, 1]</text>
<text text-anchor="middle" x="237.5" y="-7.8" font-family="Helvetica,sans-Serif" font-size="14.00">class = Chinstrap</text>
</g>
<!-- 1&#45;&gt;3 -->
<g id="edge4" class="edge">
<title>1&#45;&gt;3</title>
<path fill="none" stroke="black" d="M232.48,-103.73C233.09,-95.43 233.73,-86.67 234.34,-78.28"/>
<polygon fill="black" stroke="black" points="237.83,-78.53 235.07,-68.3 230.85,-78.02 237.83,-78.53"/>
</g>
<!-- 5 -->
<g id="node6" class="node">
<title>5</title>
<polygon fill="#2ca02c" stroke="black" points="480.5,-68 340.5,-68 340.5,0 480.5,0 480.5,-68"/>
<text text-anchor="middle" x="410.5" y="-52.8" font-family="Helvetica,sans-Serif" font-size="14.00">gini = 0.000</text>
<text text-anchor="middle" x="410.5" y="-37.8" font-family="Helvetica,sans-Serif" font-size="14.00">samples = 89</text>
<text text-anchor="middle" x="410.5" y="-22.8" font-family="Helvetica,sans-Serif" font-size="14.00">value = [0, 0, 89]</text>
<text text-anchor="middle" x="410.5" y="-7.8" font-family="Helvetica,sans-Serif" font-size="14.00">class = Gentoo</text>
</g>
<!-- 4&#45;&gt;5 -->
<g id="edge5" class="edge">
<title>4&#45;&gt;5</title>
<path fill="none" stroke="black" d="M414.89,-103.73C414.36,-95.43 413.8,-86.67 413.27,-78.28"/>
<polygon fill="black" stroke="black" points="416.76,-78.06 412.63,-68.3 409.77,-78.5 416.76,-78.06"/>
</g>
<!-- 6 -->
<g id="node7" class="node">
<title>6</title>
<polygon fill="#ffffff" stroke="black" points="638.5,-68 498.5,-68 498.5,0 638.5,0 638.5,-68"/>
<text text-anchor="middle" x="568.5" y="-52.8" font-family="Helvetica,sans-Serif" font-size="14.00">gini = 0.625</text>
<text text-anchor="middle" x="568.5" y="-37.8" font-family="Helvetica,sans-Serif" font-size="14.00">samples = 8</text>
<text text-anchor="middle" x="568.5" y="-22.8" font-family="Helvetica,sans-Serif" font-size="14.00">value = [2, 4, 2]</text>
<text text-anchor="middle" x="568.5" y="-7.8" font-family="Helvetica,sans-Serif" font-size="14.00">class = Chinstrap</text>
</g>
<!-- 4&#45;&gt;6 -->
<g id="edge6" class="edge">
<title>4&#45;&gt;6</title>
<path fill="none" stroke="black" d="M473.73,-103.73C487.06,-94.06 501.25,-83.77 514.48,-74.17"/>
<polygon fill="black" stroke="black" points="516.54,-77 522.58,-68.3 512.43,-71.34 516.54,-77"/>
</g>
</g>
</svg>
