<?xml version="1.0" encoding="UTF-8" standalone="no"?>
<!DOCTYPE svg PUBLIC "-//W3C//DTD SVG 1.1//EN"
 "http://www.w3.org/Graphics/SVG/1.1/DTD/svg11.dtd">
<!-- Generated by graphviz version 2.43.0 (0)
 -->
<!-- Title: Tree Pages: 1 -->
<svg width="906pt" height="552pt"
 viewBox="0.00 0.00 905.50 552.00" xmlns="http://www.w3.org/2000/svg" xmlns:xlink="http://www.w3.org/1999/xlink">
<g id="graph0" class="graph" transform="scale(1 1) rotate(0) translate(4 548)">
<title>Tree</title>
<polygon fill="white" stroke="transparent" points="-4,4 -4,-548 901.5,-548 901.5,4 -4,4"/>
<!-- 0 -->
<g id="node1" class="node">
<title>0</title>
<polygon fill="#ffffff" stroke="black" points="671.5,-544 485.5,-544 485.5,-461 671.5,-461 671.5,-544"/>
<text text-anchor="middle" x="578.5" y="-528.8" font-family="Helvetica,sans-Serif" font-size="14.00">flipper_length &lt;= 0.291</text>
<text text-anchor="middle" x="578.5" y="-513.8" font-family="Helvetica,sans-Serif" font-size="14.00">gini = 0.635</text>
<text text-anchor="middle" x="578.5" y="-498.8" font-family="Helvetica,sans-Serif" font-size="14.00">samples = 273</text>
<text text-anchor="middle" x="578.5" y="-483.8" font-family="Helvetica,sans-Serif" font-size="14.00">value = [125, 56, 92]</text>
<text text-anchor="middle" x="578.5" y="-468.8" font-family="Helvetica,sans-Serif" font-size="14.00">class = Adelie</text>
</g>
<!-- 1 -->
<g id="node2" class="node">
<title>1</title>
<polygon fill="#a5c8e1" stroke="black" points="568,-425 401,-425 401,-342 568,-342 568,-425"/>
<text text-anchor="middle" x="484.5" y="-409.8" font-family="Helvetica,sans-Serif" font-size="14.00">bill_length &lt;= &#45;0.132</text>
<text text-anchor="middle" x="484.5" y="-394.8" font-family="Helvetica,sans-Serif" font-size="14.00">gini = 0.424</text>
<text text-anchor="middle" x="484.5" y="-379.8" font-family="Helvetica,sans-Serif" font-size="14.00">samples = 176</text>
<text text-anchor="middle" x="484.5" y="-364.8" font-family="Helvetica,sans-Serif" font-size="14.00">value = [123, 52, 1]</text>
<text text-anchor="middle" x="484.5" y="-349.8" font-family="Helvetica,sans-Serif" font-size="14.00">class = Adelie</text>
</g>
<!-- 0&#45;&gt;1 -->
<g id="edge1" class="edge">
<title>0&#45;&gt;1</title>
<path fill="none" stroke="black" d="M545.89,-460.91C538.67,-451.92 530.95,-442.32 523.51,-433.05"/>
<polygon fill="black" stroke="black" points="526.05,-430.62 517.06,-425.02 520.59,-435.01 526.05,-430.62"/>
<text text-anchor="middle" x="514.35" y="-446.17" font-family="Helvetica,sans-Serif" font-size="14.00">True</text>
</g>
<!-- 10 -->
<g id="node3" class="node">
<title>10</title>
<polygon fill="#46ab46" stroke="black" points="758.5,-425 586.5,-425 586.5,-342 758.5,-342 758.5,-425"/>
<text text-anchor="middle" x="672.5" y="-409.8" font-family="Helvetica,sans-Serif" font-size="14.00">bill_depth &lt;= &#45;0.0259</text>
<text text-anchor="middle" x="672.5" y="-394.8" font-family="Helvetica,sans-Serif" font-size="14.00">gini = 0.118</text>
<text text-anchor="middle" x="672.5" y="-379.8" font-family="Helvetica,sans-Serif" font-size="14.00">samples = 97</text>
<text text-anchor="middle" x="672.5" y="-364.8" font-family="Helvetica,sans-Serif" font-size="14.00">value = [2, 4, 91]</text>
<text text-anchor="middle" x="672.5" y="-349.8" font-family="Helvetica,sans-Serif" font-size="14.00">class = Gentoo</text>
</g>
<!-- 0&#45;&gt;10 -->
<g id="edge2" class="edge">
<title>0&#45;&gt;10</title>
<path fill="none" stroke="black" d="M611.11,-460.91C618.33,-451.92 626.05,-442.32 633.49,-433.05"/>
<polygon fill="black" stroke="black" points="636.41,-435.01 639.94,-425.02 630.95,-430.62 636.41,-435.01"/>
<text text-anchor="middle" x="642.65" y="-446.17" font-family="Helvetica,sans-Serif" font-size="14.00">False</text>
</g>
<!-- 2 -->
<g id="node4" class="node">
<title>2</title>
<polygon fill="#2d7fb8" stroke="black" points="384,-306 217,-306 217,-223 384,-223 384,-306"/>
<text text-anchor="middle" x="300.5" y="-290.8" font-family="Helvetica,sans-Serif" font-size="14.00">bill_length &lt;= &#45;0.316</text>
<text text-anchor="middle" x="300.5" y="-275.8" font-family="Helvetica,sans-Serif" font-size="14.00">gini = 0.062</text>
<text text-anchor="middle" x="300.5" y="-260.8" font-family="Helvetica,sans-Serif" font-size="14.00">samples = 125</text>
<text text-anchor="middle" x="300.5" y="-245.8" font-family="Helvetica,sans-Serif" font-size="14.00">value = [121, 4, 0]</text>
<text text-anchor="middle" x="300.5" y="-230.8" font-family="Helvetica,sans-Serif" font-size="14.00">class = Adelie</text>
</g>
<!-- 1&#45;&gt;2 -->
<g id="edge3" class="edge">
<title>1&#45;&gt;2</title>
<path fill="none" stroke="black" d="M420.66,-341.91C405.25,-332.11 388.67,-321.56 372.89,-311.53"/>
<polygon fill="black" stroke="black" points="374.54,-308.43 364.23,-306.02 370.79,-314.34 374.54,-308.43"/>
</g>
<!-- 7 -->
<g id="node5" class="node">
<title>7</title>
<polygon fill="#ff8e2a" stroke="black" points="575,-306 402,-306 402,-223 575,-223 575,-306"/>
<text text-anchor="middle" x="488.5" y="-290.8" font-family="Helvetica,sans-Serif" font-size="14.00">body_mass &lt;= &#45;0.127</text>
<text text-anchor="middle" x="488.5" y="-275.8" font-family="Helvetica,sans-Serif" font-size="14.00">gini = 0.112</text>
<text text-anchor="middle" x="488.5" y="-260.8" font-family="Helvetica,sans-Serif" font-size="14.00">samples = 51</text>
<text text-anchor="middle" x="488.5" y="-245.8" font-family="Helvetica,sans-Serif" font-size="14.00">value = [2, 48, 1]</text>
<text text-anchor="middle" x="488.5" y="-230.8" font-family="Helvetica,sans-Serif" font-size="14.00">class = Chinstrap</text>
</g>
<!-- 1&#45;&gt;7 -->
<g id="edge4" class="edge">
<title>1&#45;&gt;7</title>
<path fill="none" stroke="black" d="M485.89,-341.91C486.17,-333.56 486.48,-324.67 486.77,-316.02"/>
<polygon fill="black" stroke="black" points="490.27,-316.13 487.11,-306.02 483.27,-315.9 490.27,-316.13"/>
</g>
<!-- 11 -->
<g id="node12" class="node">
<title>11</title>
<polygon fill="#2ca02c" stroke="black" points="739.5,-298.5 599.5,-298.5 599.5,-230.5 739.5,-230.5 739.5,-298.5"/>
<text text-anchor="middle" x="669.5" y="-283.3" font-family="Helvetica,sans-Serif" font-size="14.00">gini = 0.000</text>
<text text-anchor="middle" x="669.5" y="-268.3" font-family="Helvetica,sans-Serif" font-size="14.00">samples = 89</text>
<text text-anchor="middle" x="669.5" y="-253.3" font-family="Helvetica,sans-Serif" font-size="14.00">value = [0, 0, 89]</text>
<text text-anchor="middle" x="669.5" y="-238.3" font-family="Helvetica,sans-Serif" font-size="14.00">class = Gentoo</text>
</g>
<!-- 10&#45;&gt;11 -->
<g id="edge11" class="edge">
<title>10&#45;&gt;11</title>
<path fill="none" stroke="black" d="M671.46,-341.91C671.18,-331.2 670.89,-319.62 670.61,-308.78"/>
<polygon fill="black" stroke="black" points="674.11,-308.57 670.35,-298.67 667.11,-308.75 674.11,-308.57"/>
</g>
<!-- 12 -->
<g id="node13" class="node">
<title>12</title>
<polygon fill="#ffffff" stroke="black" points="897.5,-298.5 757.5,-298.5 757.5,-230.5 897.5,-230.5 897.5,-298.5"/>
<text text-anchor="middle" x="827.5" y="-283.3" font-family="Helvetica,sans-Serif" font-size="14.00">gini = 0.625</text>
<text text-anchor="middle" x="827.5" y="-268.3" font-family="Helvetica,sans-Serif" font-size="14.00">samples = 8</text>
<text text-anchor="middle" x="827.5" y="-253.3" font-family="Helvetica,sans-Serif" font-size="14.00">value = [2, 4, 2]</text>
<text text-anchor="middle" x="827.5" y="-238.3" font-family="Helvetica,sans-Serif" font-size="14.00">class = Chinstrap</text>
</g>
<!-- 10&#45;&gt;12 -->
<g id="edge12" class="edge">
<title>10&#45;&gt;12</title>
<path fill="none" stroke="black" d="M726.28,-341.91C742.21,-329.88 759.63,-316.73 775.45,-304.79"/>
<polygon fill="black" stroke="black" points="777.69,-307.49 783.56,-298.67 773.47,-301.9 777.69,-307.49"/>
</g>
<!-- 3 -->
<g id="node6" class="node">
<title>3</title>
<polygon fill="#2279b5" stroke="black" points="226,-187 63,-187 63,-104 226,-104 226,-187"/>
<text text-anchor="middle" x="144.5" y="-171.8" font-family="Helvetica,sans-Serif" font-size="14.00">bill_depth &lt;= &#45;0.229</text>
<text text-anchor="middle" x="144.5" y="-156.8" font-family="Helvetica,sans-Serif" font-size="14.00">gini = 0.017</text>
<text text-anchor="middle" x="144.5" y="-141.8" font-family="Helvetica,sans-Serif" font-size="14.00">samples = 116</text>
<text text-anchor="middle" x="144.5" y="-126.8" font-family="Helvetica,sans-Serif" font-size="14.00">value = [115, 1, 0]</text>
<text text-anchor="middle" x="144.5" y="-111.8" font-family="Helvetica,sans-Serif" font-size="14.00">class = Adelie</text>
</g>
<!-- 2&#45;&gt;3 -->
<g id="edge5" class="edge">
<title>2&#45;&gt;3</title>
<path fill="none" stroke="black" d="M246.38,-222.91C233.55,-213.29 219.77,-202.95 206.62,-193.09"/>
<polygon fill="black" stroke="black" points="208.63,-190.22 198.53,-187.02 204.43,-195.82 208.63,-190.22"/>
</g>
<!-- 6 -->
<g id="node7" class="node">
<title>6</title>
<polygon fill="#b4d1e6" stroke="black" points="375,-179.5 244,-179.5 244,-111.5 375,-111.5 375,-179.5"/>
<text text-anchor="middle" x="309.5" y="-164.3" font-family="Helvetica,sans-Serif" font-size="14.00">gini = 0.444</text>
<text text-anchor="middle" x="309.5" y="-149.3" font-family="Helvetica,sans-Serif" font-size="14.00">samples = 9</text>
<text text-anchor="middle" x="309.5" y="-134.3" font-family="Helvetica,sans-Serif" font-size="14.00">value = [6, 3, 0]</text>
<text text-anchor="middle" x="309.5" y="-119.3" font-family="Helvetica,sans-Serif" font-size="14.00">class = Adelie</text>
</g>
<!-- 2&#45;&gt;6 -->
<g id="edge6" class="edge">
<title>2&#45;&gt;6</title>
<path fill="none" stroke="black" d="M303.62,-222.91C304.45,-212.2 305.34,-200.62 306.17,-189.78"/>
<polygon fill="black" stroke="black" points="309.67,-189.91 306.95,-179.67 302.69,-189.37 309.67,-189.91"/>
</g>
<!-- 8 -->
<g id="node10" class="node">
<title>8</title>
<polygon fill="#ff7f0e" stroke="black" points="550.5,-179.5 410.5,-179.5 410.5,-111.5 550.5,-111.5 550.5,-179.5"/>
<text text-anchor="middle" x="480.5" y="-164.3" font-family="Helvetica,sans-Serif" font-size="14.00">gini = 0.000</text>
<text text-anchor="middle" x="480.5" y="-149.3" font-family="Helvetica,sans-Serif" font-size="14.00">samples = 43</text>
<text text-anchor="middle" x="480.5" y="-134.3" font-family="Helvetica,sans-Serif" font-size="14.00">value = [0, 43, 0]</text>
<text text-anchor="middle" x="480.5" y="-119.3" font-family="Helvetica,sans-Serif" font-size="14.00">class = Chinstrap</text>
</g>
<!-- 7&#45;&gt;8 -->
<g id="edge9" class="edge">
<title>7&#45;&gt;8</title>
<path fill="none" stroke="black" d="M485.72,-222.91C484.99,-212.2 484.2,-200.62 483.46,-189.78"/>
<polygon fill="black" stroke="black" points="486.94,-189.4 482.77,-179.67 479.96,-189.88 486.94,-189.4"/>
</g>
<!-- 9 -->
<g id="node11" class="node">
<title>9</title>
<polygon fill="#ffdfc2" stroke="black" points="708.5,-179.5 568.5,-179.5 568.5,-111.5 708.5,-111.5 708.5,-179.5"/>
<text text-anchor="middle" x="638.5" y="-164.3" font-family="Helvetica,sans-Serif" font-size="14.00">gini = 0.531</text>
<text text-anchor="middle" x="638.5" y="-149.3" font-family="Helvetica,sans-Serif" font-size="14.00">samples = 8</text>
<text text-anchor="middle" x="638.5" y="-134.3" font-family="Helvetica,sans-Serif" font-size="14.00">value = [2, 5, 1]</text>
<text text-anchor="middle" x="638.5" y="-119.3" font-family="Helvetica,sans-Serif" font-size="14.00">class = Chinstrap</text>
</g>
<!-- 7&#45;&gt;9 -->
<g id="edge10" class="edge">
<title>7&#45;&gt;9</title>
<path fill="none" stroke="black" d="M540.54,-222.91C555.82,-210.99 572.51,-197.98 587.71,-186.12"/>
<polygon fill="black" stroke="black" points="590.25,-188.58 595.98,-179.67 585.94,-183.06 590.25,-188.58"/>
</g>
<!-- 4 -->
<g id="node8" class="node">
<title>4</title>
<polygon fill="#5799c6" stroke="black" points="131,-68 0,-68 0,0 131,0 131,-68"/>
<text text-anchor="middle" x="65.5" y="-52.8" font-family="Helvetica,sans-Serif" font-size="14.00">gini = 0.219</text>
<text text-anchor="middle" x="65.5" y="-37.8" font-family="Helvetica,sans-Serif" font-size="14.00">samples = 8</text>
<text text-anchor="middle" x="65.5" y="-22.8" font-family="Helvetica,sans-Serif" font-size="14.00">value = [7, 1, 0]</text>
<text text-anchor="middle" x="65.5" y="-7.8" font-family="Helvetica,sans-Serif" font-size="14.00">class = Adelie</text>
</g>
<!-- 3&#45;&gt;4 -->
<g id="edge7" class="edge">
<title>3&#45;&gt;4</title>
<path fill="none" stroke="black" d="M115.08,-103.73C108.7,-94.88 101.94,-85.51 95.53,-76.63"/>
<polygon fill="black" stroke="black" points="98.21,-74.36 89.52,-68.3 92.54,-78.46 98.21,-74.36"/>
</g>
<!-- 5 -->
<g id="node9" class="node">
<title>5</title>
<polygon fill="#1f77b4" stroke="black" points="298,-68 149,-68 149,0 298,0 298,-68"/>
<text text-anchor="middle" x="223.5" y="-52.8" font-family="Helvetica,sans-Serif" font-size="14.00">gini = 0.000</text>
<text text-anchor="middle" x="223.5" y="-37.8" font-family="Helvetica,sans-Serif" font-size="14.00">samples = 108</text>
<text text-anchor="middle" x="223.5" y="-22.8" font-family="Helvetica,sans-Serif" font-size="14.00">value = [108, 0, 0]</text>
<text text-anchor="middle" x="223.5" y="-7.8" font-family="Helvetica,sans-Serif" font-size="14.00">class = Adelie</text>
</g>
<!-- 3&#45;&gt;5 -->
<g id="edge8" class="edge">
<title>3&#45;&gt;5</title>
<path fill="none" stroke="black" d="M173.92,-103.73C180.3,-94.88 187.06,-85.51 193.47,-76.63"/>
<polygon fill="black" stroke="black" points="196.46,-78.46 199.48,-68.3 190.79,-74.36 196.46,-78.46"/>
</g>
</g>
</svg>
