<?xml version="1.0" encoding="UTF-8" standalone="no"?>
<!DOCTYPE svg PUBLIC "-//W3C//DTD SVG 1.1//EN"
 "http://www.w3.org/Graphics/SVG/1.1/DTD/svg11.dtd">
<!-- Generated by graphviz version 2.43.0 (0)
 -->
<!-- Title: Tree Pages: 1 -->
<svg width="569pt" height="314pt"
 viewBox="0.00 0.00 568.50 314.00" xmlns="http://www.w3.org/2000/svg" xmlns:xlink="http://www.w3.org/1999/xlink">
<g id="graph0" class="graph" transform="scale(1 1) rotate(0) translate(4 310)">
<title>Tree</title>
<polygon fill="white" stroke="transparent" points="-4,4 -4,-310 564.5,-310 564.5,4 -4,4"/>
<!-- 0 -->
<g id="node1" class="node">
<title>0</title>
<polygon fill="#c3daea" stroke="black" points="370.5,-306 184.5,-306 184.5,-223 370.5,-223 370.5,-306"/>
<text text-anchor="middle" x="277.5" y="-290.8" font-family="Helvetica,sans-Serif" font-size="14.00">flipper_length &lt;= 0.433</text>
<text text-anchor="middle" x="277.5" y="-275.8" font-family="Helvetica,sans-Serif" font-size="14.00">gini = 0.464</text>
<text text-anchor="middle" x="277.5" y="-260.8" font-family="Helvetica,sans-Serif" font-size="14.00">samples = 273</text>
<text text-anchor="middle" x="277.5" y="-245.8" font-family="Helvetica,sans-Serif" font-size="14.00">value = [173, 100]</text>
<text text-anchor="middle" x="277.5" y="-230.8" font-family="Helvetica,sans-Serif" font-size="14.00">class = Other</text>
</g>
<!-- 1 -->
<g id="node2" class="node">
<title>1</title>
<polygon fill="#2178b4" stroke="black" points="269,-187 106,-187 106,-104 269,-104 269,-187"/>
<text text-anchor="middle" x="187.5" y="-171.8" font-family="Helvetica,sans-Serif" font-size="14.00">bill_depth &lt;= &#45;0.381</text>
<text text-anchor="middle" x="187.5" y="-156.8" font-family="Helvetica,sans-Serif" font-size="14.00">gini = 0.011</text>
<text text-anchor="middle" x="187.5" y="-141.8" font-family="Helvetica,sans-Serif" font-size="14.00">samples = 173</text>
<text text-anchor="middle" x="187.5" y="-126.8" font-family="Helvetica,sans-Serif" font-size="14.00">value = [172, 1]</text>
<text text-anchor="middle" x="187.5" y="-111.8" font-family="Helvetica,sans-Serif" font-size="14.00">class = Other</text>
</g>
<!-- 0&#45;&gt;1 -->
<g id="edge1" class="edge">
<title>0&#45;&gt;1</title>
<path fill="none" stroke="black" d="M246.27,-222.91C239.36,-213.92 231.97,-204.32 224.85,-195.05"/>
<polygon fill="black" stroke="black" points="227.54,-192.81 218.67,-187.02 221.99,-197.08 227.54,-192.81"/>
<text text-anchor="middle" x="215.44" y="-208.11" font-family="Helvetica,sans-Serif" font-size="14.00">True</text>
</g>
<!-- 4 -->
<g id="node3" class="node">
<title>4</title>
<polygon fill="#ff8112" stroke="black" points="450,-187 287,-187 287,-104 450,-104 450,-187"/>
<text text-anchor="middle" x="368.5" y="-171.8" font-family="Helvetica,sans-Serif" font-size="14.00">bill_depth &lt;= &#45;0.178</text>
<text text-anchor="middle" x="368.5" y="-156.8" font-family="Helvetica,sans-Serif" font-size="14.00">gini = 0.020</text>
<text text-anchor="middle" x="368.5" y="-141.8" font-family="Helvetica,sans-Serif" font-size="14.00">samples = 100</text>
<text text-anchor="middle" x="368.5" y="-126.8" font-family="Helvetica,sans-Serif" font-size="14.00">value = [1, 99]</text>
<text text-anchor="middle" x="368.5" y="-111.8" font-family="Helvetica,sans-Serif" font-size="14.00">class = Gentoo</text>
</g>
<!-- 0&#45;&gt;4 -->
<g id="edge2" class="edge">
<title>0&#45;&gt;4</title>
<path fill="none" stroke="black" d="M309.07,-222.91C316.06,-213.92 323.53,-204.32 330.74,-195.05"/>
<polygon fill="black" stroke="black" points="333.61,-197.06 336.98,-187.02 328.08,-192.77 333.61,-197.06"/>
<text text-anchor="middle" x="340.08" y="-208.13" font-family="Helvetica,sans-Serif" font-size="14.00">False</text>
</g>
<!-- 2 -->
<g id="node4" class="node">
<title>2</title>
<polygon fill="#78add2" stroke="black" points="113,-68 0,-68 0,0 113,0 113,-68"/>
<text text-anchor="middle" x="56.5" y="-52.8" font-family="Helvetica,sans-Serif" font-size="14.00">gini = 0.320</text>
<text text-anchor="middle" x="56.5" y="-37.8" font-family="Helvetica,sans-Serif" font-size="14.00">samples = 5</text>
<text text-anchor="middle" x="56.5" y="-22.8" font-family="Helvetica,sans-Serif" font-size="14.00">value = [4, 1]</text>
<text text-anchor="middle" x="56.5" y="-7.8" font-family="Helvetica,sans-Serif" font-size="14.00">class = Other</text>
</g>
<!-- 1&#45;&gt;2 -->
<g id="edge3" class="edge">
<title>1&#45;&gt;2</title>
<path fill="none" stroke="black" d="M138.72,-103.73C127.37,-94.24 115.31,-84.16 104.01,-74.72"/>
<polygon fill="black" stroke="black" points="106.26,-72.03 96.34,-68.3 101.77,-77.4 106.26,-72.03"/>
</g>
<!-- 3 -->
<g id="node5" class="node">
<title>3</title>
<polygon fill="#1f77b4" stroke="black" points="262,-68 131,-68 131,0 262,0 262,-68"/>
<text text-anchor="middle" x="196.5" y="-52.8" font-family="Helvetica,sans-Serif" font-size="14.00">gini = 0.000</text>
<text text-anchor="middle" x="196.5" y="-37.8" font-family="Helvetica,sans-Serif" font-size="14.00">samples = 168</text>
<text text-anchor="middle" x="196.5" y="-22.8" font-family="Helvetica,sans-Serif" font-size="14.00">value = [168, 0]</text>
<text text-anchor="middle" x="196.5" y="-7.8" font-family="Helvetica,sans-Serif" font-size="14.00">class = Other</text>
</g>
<!-- 1&#45;&gt;3 -->
<g id="edge4" class="edge">
<title>1&#45;&gt;3</title>
<path fill="none" stroke="black" d="M190.85,-103.73C191.53,-95.43 192.25,-86.67 192.94,-78.28"/>
<polygon fill="black" stroke="black" points="196.43,-78.55 193.76,-68.3 189.46,-77.98 196.43,-78.55"/>
</g>
<!-- 5 -->
<g id="node6" class="node">
<title>5</title>
<polygon fill="#ff7f0e" stroke="black" points="420.5,-68 298.5,-68 298.5,0 420.5,0 420.5,-68"/>
<text text-anchor="middle" x="359.5" y="-52.8" font-family="Helvetica,sans-Serif" font-size="14.00">gini = 0.000</text>
<text text-anchor="middle" x="359.5" y="-37.8" font-family="Helvetica,sans-Serif" font-size="14.00">samples = 94</text>
<text text-anchor="middle" x="359.5" y="-22.8" font-family="Helvetica,sans-Serif" font-size="14.00">value = [0, 94]</text>
<text text-anchor="middle" x="359.5" y="-7.8" font-family="Helvetica,sans-Serif" font-size="14.00">class = Gentoo</text>
</g>
<!-- 4&#45;&gt;5 -->
<g id="edge5" class="edge">
<title>4&#45;&gt;5</title>
<path fill="none" stroke="black" d="M365.15,-103.73C364.47,-95.43 363.75,-86.67 363.06,-78.28"/>
<polygon fill="black" stroke="black" points="366.54,-77.98 362.24,-68.3 359.57,-78.55 366.54,-77.98"/>
</g>
<!-- 6 -->
<g id="node7" class="node">
<title>6</title>
<polygon fill="#ffa95e" stroke="black" points="560.5,-68 438.5,-68 438.5,0 560.5,0 560.5,-68"/>
<text text-anchor="middle" x="499.5" y="-52.8" font-family="Helvetica,sans-Serif" font-size="14.00">gini = 0.278</text>
<text text-anchor="middle" x="499.5" y="-37.8" font-family="Helvetica,sans-Serif" font-size="14.00">samples = 6</text>
<text text-anchor="middle" x="499.5" y="-22.8" font-family="Helvetica,sans-Serif" font-size="14.00">value = [1, 5]</text>
<text text-anchor="middle" x="499.5" y="-7.8" font-family="Helvetica,sans-Serif" font-size="14.00">class = Gentoo</text>
</g>
<!-- 4&#45;&gt;6 -->
<g id="edge6" class="edge">
<title>4&#45;&gt;6</title>
<path fill="none" stroke="black" d="M417.28,-103.73C428.63,-94.24 440.69,-84.16 451.99,-74.72"/>
<polygon fill="black" stroke="black" points="454.23,-77.4 459.66,-68.3 449.74,-72.03 454.23,-77.4"/>
</g>
</g>
</svg>
