<?xml version="1.0" encoding="utf-8" standalone="no"?>
<!DOCTYPE svg PUBLIC "-//W3C//DTD SVG 1.1//EN"
  "http://www.w3.org/Graphics/SVG/1.1/DTD/svg11.dtd">
<svg xmlns:xlink="http://www.w3.org/1999/xlink" width="864pt" height="252pt" viewBox="0 0 864 252" xmlns="http://www.w3.org/2000/svg" version="1.1">
 <metadata>
  <rdf:RDF xmlns:dc="http://purl.org/dc/elements/1.1/" xmlns:cc="http://creativecommons.org/ns#" xmlns:rdf="http://www.w3.org/1999/02/22-rdf-syntax-ns#">
   <cc:Work>
    <dc:type rdf:resource="http://purl.org/dc/dcmitype/StillImage"/>
    <dc:date>2024-12-08T15:47:20.385043</dc:date>
    <dc:format>image/svg+xml</dc:format>
    <dc:creator>
     <cc:Agent>
      <dc:title>Matplotlib v3.9.2, https://matplotlib.org/</dc:title>
     </cc:Agent>
    </dc:creator>
   </cc:Work>
  </rdf:RDF>
 </metadata>
 <defs>
  <style type="text/css">*{stroke-linejoin: round; stroke-linecap: butt}</style>
 </defs>
 <g id="figure_1">
  <g id="patch_1">
   <path d="M 0 252 
L 864 252 
L 864 0 
L 0 0 
z
" style="fill: #ffffff"/>
  </g>
  <g id="axes_1">
   <g id="patch_2">
    <path d="M 47.72 209.93875 
L 286.956667 209.93875 
L 286.956667 34.56 
L 47.72 34.56 
z
" style="fill: #ffffff"/>
   </g>
   <g id="PolyCollection_1">
    <defs>
     <path id="m04651601ef" d="M 58.594394 -212.773275 
L 58.594394 -88.881787 
L 75.324231 -121.161441 
L 92.054068 -148.479242 
L 108.783904 -54.764259 
L 125.513741 -127.810043 
L 142.243578 -102.766073 
L 158.973415 -107.64753 
L 175.703252 -61.803423 
L 192.433089 -75.960353 
L 209.162925 -69.460176 
L 225.892762 -112.948908 
L 242.622599 -74.705494 
L 259.352436 -40.83561 
L 276.082273 -97.114863 
L 276.082273 -227.496771 
L 276.082273 -227.496771 
L 259.352436 -180.761179 
L 242.622599 -204.899474 
L 225.892762 -228.210689 
L 209.162925 -219.467284 
L 192.433089 -224.499509 
L 175.703252 -203.212522 
L 158.973415 -231.733868 
L 142.243578 -215.974851 
L 125.513741 -234.454768 
L 108.783904 -187.674474 
L 92.054068 -218.591699 
L 75.324231 -228.980208 
L 58.594394 -212.773275 
z
" style="stroke: #1f77b4; stroke-opacity: 0.2"/>
    </defs>
    <g clip-path="url(#p1d245a2bf0)">
     <use xlink:href="#m04651601ef" x="0" y="252" style="fill: #1f77b4; fill-opacity: 0.2; stroke: #1f77b4; stroke-opacity: 0.2"/>
    </g>
   </g>
   <g id="matplotlib.axis_1">
    <g id="xtick_1">
     <g id="line2d_1">
      <defs>
       <path id="m3bf46ad72c" d="M 0 0 
L 0 3.5 
" style="stroke: #000000; stroke-width: 0.8"/>
      </defs>
      <g>
       <use xlink:href="#m3bf46ad72c" x="66.959312" y="209.93875" style="stroke: #000000; stroke-width: 0.8"/>
      </g>
     </g>
     <g id="text_1">
      <!-- 2 -->
      <g transform="translate(63.778062 224.537188) scale(0.1 -0.1)">
       <defs>
        <path id="DejaVuSans-32" d="M 1228 531 
L 3431 531 
L 3431 0 
L 469 0 
L 469 531 
Q 828 903 1448 1529 
Q 2069 2156 2228 2338 
Q 2531 2678 2651 2914 
Q 2772 3150 2772 3378 
Q 2772 3750 2511 3984 
Q 2250 4219 1831 4219 
Q 1534 4219 1204 4116 
Q 875 4013 500 3803 
L 500 4441 
Q 881 4594 1212 4672 
Q 1544 4750 1819 4750 
Q 2544 4750 2975 4387 
Q 3406 4025 3406 3419 
Q 3406 3131 3298 2873 
Q 3191 2616 2906 2266 
Q 2828 2175 2409 1742 
Q 1991 1309 1228 531 
z
" transform="scale(0.015625)"/>
       </defs>
       <use xlink:href="#DejaVuSans-32"/>
      </g>
     </g>
    </g>
    <g id="xtick_2">
     <g id="line2d_2">
      <g>
       <use xlink:href="#m3bf46ad72c" x="108.783904" y="209.93875" style="stroke: #000000; stroke-width: 0.8"/>
      </g>
     </g>
     <g id="text_2">
      <!-- 5 -->
      <g transform="translate(105.602654 224.537188) scale(0.1 -0.1)">
       <defs>
        <path id="DejaVuSans-35" d="M 691 4666 
L 3169 4666 
L 3169 4134 
L 1269 4134 
L 1269 2991 
Q 1406 3038 1543 3061 
Q 1681 3084 1819 3084 
Q 2600 3084 3056 2656 
Q 3513 2228 3513 1497 
Q 3513 744 3044 326 
Q 2575 -91 1722 -91 
Q 1428 -91 1123 -41 
Q 819 9 494 109 
L 494 744 
Q 775 591 1075 516 
Q 1375 441 1709 441 
Q 2250 441 2565 725 
Q 2881 1009 2881 1497 
Q 2881 1984 2565 2268 
Q 2250 2553 1709 2553 
Q 1456 2553 1204 2497 
Q 953 2441 691 2322 
L 691 4666 
z
" transform="scale(0.015625)"/>
       </defs>
       <use xlink:href="#DejaVuSans-35"/>
      </g>
     </g>
    </g>
    <g id="xtick_3">
     <g id="line2d_3">
      <g>
       <use xlink:href="#m3bf46ad72c" x="150.608497" y="209.93875" style="stroke: #000000; stroke-width: 0.8"/>
      </g>
     </g>
     <g id="text_3">
      <!-- 7 -->
      <g transform="translate(147.427247 224.537188) scale(0.1 -0.1)">
       <defs>
        <path id="DejaVuSans-37" d="M 525 4666 
L 3525 4666 
L 3525 4397 
L 1831 0 
L 1172 0 
L 2766 4134 
L 525 4134 
L 525 4666 
z
" transform="scale(0.015625)"/>
       </defs>
       <use xlink:href="#DejaVuSans-37"/>
      </g>
     </g>
    </g>
    <g id="xtick_4">
     <g id="line2d_4">
      <g>
       <use xlink:href="#m3bf46ad72c" x="192.433089" y="209.93875" style="stroke: #000000; stroke-width: 0.8"/>
      </g>
     </g>
     <g id="text_4">
      <!-- 10 -->
      <g transform="translate(186.070589 224.537188) scale(0.1 -0.1)">
       <defs>
        <path id="DejaVuSans-31" d="M 794 531 
L 1825 531 
L 1825 4091 
L 703 3866 
L 703 4441 
L 1819 4666 
L 2450 4666 
L 2450 531 
L 3481 531 
L 3481 0 
L 794 0 
L 794 531 
z
" transform="scale(0.015625)"/>
        <path id="DejaVuSans-30" d="M 2034 4250 
Q 1547 4250 1301 3770 
Q 1056 3291 1056 2328 
Q 1056 1369 1301 889 
Q 1547 409 2034 409 
Q 2525 409 2770 889 
Q 3016 1369 3016 2328 
Q 3016 3291 2770 3770 
Q 2525 4250 2034 4250 
z
M 2034 4750 
Q 2819 4750 3233 4129 
Q 3647 3509 3647 2328 
Q 3647 1150 3233 529 
Q 2819 -91 2034 -91 
Q 1250 -91 836 529 
Q 422 1150 422 2328 
Q 422 3509 836 4129 
Q 1250 4750 2034 4750 
z
" transform="scale(0.015625)"/>
       </defs>
       <use xlink:href="#DejaVuSans-31"/>
       <use xlink:href="#DejaVuSans-30" x="63.623047"/>
      </g>
     </g>
    </g>
    <g id="xtick_5">
     <g id="line2d_5">
      <g>
       <use xlink:href="#m3bf46ad72c" x="234.257681" y="209.93875" style="stroke: #000000; stroke-width: 0.8"/>
      </g>
     </g>
     <g id="text_5">
      <!-- 12 -->
      <g transform="translate(227.895181 224.537188) scale(0.1 -0.1)">
       <use xlink:href="#DejaVuSans-31"/>
       <use xlink:href="#DejaVuSans-32" x="63.623047"/>
      </g>
     </g>
    </g>
    <g id="xtick_6">
     <g id="line2d_6">
      <g>
       <use xlink:href="#m3bf46ad72c" x="276.082273" y="209.93875" style="stroke: #000000; stroke-width: 0.8"/>
      </g>
     </g>
     <g id="text_6">
      <!-- 15 -->
      <g transform="translate(269.719773 224.537188) scale(0.1 -0.1)">
       <use xlink:href="#DejaVuSans-31"/>
       <use xlink:href="#DejaVuSans-35" x="63.623047"/>
      </g>
     </g>
    </g>
    <g id="text_7">
     <!-- max_depth -->
     <g transform="translate(139.390677 238.215313) scale(0.1 -0.1)">
      <defs>
       <path id="DejaVuSans-6d" d="M 3328 2828 
Q 3544 3216 3844 3400 
Q 4144 3584 4550 3584 
Q 5097 3584 5394 3201 
Q 5691 2819 5691 2113 
L 5691 0 
L 5113 0 
L 5113 2094 
Q 5113 2597 4934 2840 
Q 4756 3084 4391 3084 
Q 3944 3084 3684 2787 
Q 3425 2491 3425 1978 
L 3425 0 
L 2847 0 
L 2847 2094 
Q 2847 2600 2669 2842 
Q 2491 3084 2119 3084 
Q 1678 3084 1418 2786 
Q 1159 2488 1159 1978 
L 1159 0 
L 581 0 
L 581 3500 
L 1159 3500 
L 1159 2956 
Q 1356 3278 1631 3431 
Q 1906 3584 2284 3584 
Q 2666 3584 2933 3390 
Q 3200 3197 3328 2828 
z
" transform="scale(0.015625)"/>
       <path id="DejaVuSans-61" d="M 2194 1759 
Q 1497 1759 1228 1600 
Q 959 1441 959 1056 
Q 959 750 1161 570 
Q 1363 391 1709 391 
Q 2188 391 2477 730 
Q 2766 1069 2766 1631 
L 2766 1759 
L 2194 1759 
z
M 3341 1997 
L 3341 0 
L 2766 0 
L 2766 531 
Q 2569 213 2275 61 
Q 1981 -91 1556 -91 
Q 1019 -91 701 211 
Q 384 513 384 1019 
Q 384 1609 779 1909 
Q 1175 2209 1959 2209 
L 2766 2209 
L 2766 2266 
Q 2766 2663 2505 2880 
Q 2244 3097 1772 3097 
Q 1472 3097 1187 3025 
Q 903 2953 641 2809 
L 641 3341 
Q 956 3463 1253 3523 
Q 1550 3584 1831 3584 
Q 2591 3584 2966 3190 
Q 3341 2797 3341 1997 
z
" transform="scale(0.015625)"/>
       <path id="DejaVuSans-78" d="M 3513 3500 
L 2247 1797 
L 3578 0 
L 2900 0 
L 1881 1375 
L 863 0 
L 184 0 
L 1544 1831 
L 300 3500 
L 978 3500 
L 1906 2253 
L 2834 3500 
L 3513 3500 
z
" transform="scale(0.015625)"/>
       <path id="DejaVuSans-5f" d="M 3263 -1063 
L 3263 -1509 
L -63 -1509 
L -63 -1063 
L 3263 -1063 
z
" transform="scale(0.015625)"/>
       <path id="DejaVuSans-64" d="M 2906 2969 
L 2906 4863 
L 3481 4863 
L 3481 0 
L 2906 0 
L 2906 525 
Q 2725 213 2448 61 
Q 2172 -91 1784 -91 
Q 1150 -91 751 415 
Q 353 922 353 1747 
Q 353 2572 751 3078 
Q 1150 3584 1784 3584 
Q 2172 3584 2448 3432 
Q 2725 3281 2906 2969 
z
M 947 1747 
Q 947 1113 1208 752 
Q 1469 391 1925 391 
Q 2381 391 2643 752 
Q 2906 1113 2906 1747 
Q 2906 2381 2643 2742 
Q 2381 3103 1925 3103 
Q 1469 3103 1208 2742 
Q 947 2381 947 1747 
z
" transform="scale(0.015625)"/>
       <path id="DejaVuSans-65" d="M 3597 1894 
L 3597 1613 
L 953 1613 
Q 991 1019 1311 708 
Q 1631 397 2203 397 
Q 2534 397 2845 478 
Q 3156 559 3463 722 
L 3463 178 
Q 3153 47 2828 -22 
Q 2503 -91 2169 -91 
Q 1331 -91 842 396 
Q 353 884 353 1716 
Q 353 2575 817 3079 
Q 1281 3584 2069 3584 
Q 2775 3584 3186 3129 
Q 3597 2675 3597 1894 
z
M 3022 2063 
Q 3016 2534 2758 2815 
Q 2500 3097 2075 3097 
Q 1594 3097 1305 2825 
Q 1016 2553 972 2059 
L 3022 2063 
z
" transform="scale(0.015625)"/>
       <path id="DejaVuSans-70" d="M 1159 525 
L 1159 -1331 
L 581 -1331 
L 581 3500 
L 1159 3500 
L 1159 2969 
Q 1341 3281 1617 3432 
Q 1894 3584 2278 3584 
Q 2916 3584 3314 3078 
Q 3713 2572 3713 1747 
Q 3713 922 3314 415 
Q 2916 -91 2278 -91 
Q 1894 -91 1617 61 
Q 1341 213 1159 525 
z
M 3116 1747 
Q 3116 2381 2855 2742 
Q 2594 3103 2138 3103 
Q 1681 3103 1420 2742 
Q 1159 2381 1159 1747 
Q 1159 1113 1420 752 
Q 1681 391 2138 391 
Q 2594 391 2855 752 
Q 3116 1113 3116 1747 
z
" transform="scale(0.015625)"/>
       <path id="DejaVuSans-74" d="M 1172 4494 
L 1172 3500 
L 2356 3500 
L 2356 3053 
L 1172 3053 
L 1172 1153 
Q 1172 725 1289 603 
Q 1406 481 1766 481 
L 2356 481 
L 2356 0 
L 1766 0 
Q 1100 0 847 248 
Q 594 497 594 1153 
L 594 3053 
L 172 3053 
L 172 3500 
L 594 3500 
L 594 4494 
L 1172 4494 
z
" transform="scale(0.015625)"/>
       <path id="DejaVuSans-68" d="M 3513 2113 
L 3513 0 
L 2938 0 
L 2938 2094 
Q 2938 2591 2744 2837 
Q 2550 3084 2163 3084 
Q 1697 3084 1428 2787 
Q 1159 2491 1159 1978 
L 1159 0 
L 581 0 
L 581 4863 
L 1159 4863 
L 1159 2956 
Q 1366 3272 1645 3428 
Q 1925 3584 2291 3584 
Q 2894 3584 3203 3211 
Q 3513 2838 3513 2113 
z
" transform="scale(0.015625)"/>
      </defs>
      <use xlink:href="#DejaVuSans-6d"/>
      <use xlink:href="#DejaVuSans-61" x="97.412109"/>
      <use xlink:href="#DejaVuSans-78" x="158.691406"/>
      <use xlink:href="#DejaVuSans-5f" x="217.871094"/>
      <use xlink:href="#DejaVuSans-64" x="267.871094"/>
      <use xlink:href="#DejaVuSans-65" x="331.347656"/>
      <use xlink:href="#DejaVuSans-70" x="392.871094"/>
      <use xlink:href="#DejaVuSans-74" x="456.347656"/>
      <use xlink:href="#DejaVuSans-68" x="495.556641"/>
     </g>
    </g>
   </g>
   <g id="matplotlib.axis_2">
    <g id="ytick_1">
     <g id="line2d_7">
      <defs>
       <path id="m94c23c9c2f" d="M 0 0 
L -3.5 0 
" style="stroke: #000000; stroke-width: 0.8"/>
      </defs>
      <g>
       <use xlink:href="#m94c23c9c2f" x="47.72" y="191.338926" style="stroke: #000000; stroke-width: 0.8"/>
      </g>
     </g>
     <g id="text_8">
      <!-- 0.5 -->
      <g transform="translate(24.816875 195.138144) scale(0.1 -0.1)">
       <defs>
        <path id="DejaVuSans-2e" d="M 684 794 
L 1344 794 
L 1344 0 
L 684 0 
L 684 794 
z
" transform="scale(0.015625)"/>
       </defs>
       <use xlink:href="#DejaVuSans-30"/>
       <use xlink:href="#DejaVuSans-2e" x="63.623047"/>
       <use xlink:href="#DejaVuSans-35" x="95.410156"/>
      </g>
     </g>
    </g>
    <g id="ytick_2">
     <g id="line2d_8">
      <g>
       <use xlink:href="#m94c23c9c2f" x="47.72" y="154.139277" style="stroke: #000000; stroke-width: 0.8"/>
      </g>
     </g>
     <g id="text_9">
      <!-- 0.6 -->
      <g transform="translate(24.816875 157.938496) scale(0.1 -0.1)">
       <defs>
        <path id="DejaVuSans-36" d="M 2113 2584 
Q 1688 2584 1439 2293 
Q 1191 2003 1191 1497 
Q 1191 994 1439 701 
Q 1688 409 2113 409 
Q 2538 409 2786 701 
Q 3034 994 3034 1497 
Q 3034 2003 2786 2293 
Q 2538 2584 2113 2584 
z
M 3366 4563 
L 3366 3988 
Q 3128 4100 2886 4159 
Q 2644 4219 2406 4219 
Q 1781 4219 1451 3797 
Q 1122 3375 1075 2522 
Q 1259 2794 1537 2939 
Q 1816 3084 2150 3084 
Q 2853 3084 3261 2657 
Q 3669 2231 3669 1497 
Q 3669 778 3244 343 
Q 2819 -91 2113 -91 
Q 1303 -91 875 529 
Q 447 1150 447 2328 
Q 447 3434 972 4092 
Q 1497 4750 2381 4750 
Q 2619 4750 2861 4703 
Q 3103 4656 3366 4563 
z
" transform="scale(0.015625)"/>
       </defs>
       <use xlink:href="#DejaVuSans-30"/>
       <use xlink:href="#DejaVuSans-2e" x="63.623047"/>
       <use xlink:href="#DejaVuSans-36" x="95.410156"/>
      </g>
     </g>
    </g>
    <g id="ytick_3">
     <g id="line2d_9">
      <g>
       <use xlink:href="#m94c23c9c2f" x="47.72" y="116.939628" style="stroke: #000000; stroke-width: 0.8"/>
      </g>
     </g>
     <g id="text_10">
      <!-- 0.7 -->
      <g transform="translate(24.816875 120.738847) scale(0.1 -0.1)">
       <use xlink:href="#DejaVuSans-30"/>
       <use xlink:href="#DejaVuSans-2e" x="63.623047"/>
       <use xlink:href="#DejaVuSans-37" x="95.410156"/>
      </g>
     </g>
    </g>
    <g id="ytick_4">
     <g id="line2d_10">
      <g>
       <use xlink:href="#m94c23c9c2f" x="47.72" y="79.73998" style="stroke: #000000; stroke-width: 0.8"/>
      </g>
     </g>
     <g id="text_11">
      <!-- 0.8 -->
      <g transform="translate(24.816875 83.539198) scale(0.1 -0.1)">
       <defs>
        <path id="DejaVuSans-38" d="M 2034 2216 
Q 1584 2216 1326 1975 
Q 1069 1734 1069 1313 
Q 1069 891 1326 650 
Q 1584 409 2034 409 
Q 2484 409 2743 651 
Q 3003 894 3003 1313 
Q 3003 1734 2745 1975 
Q 2488 2216 2034 2216 
z
M 1403 2484 
Q 997 2584 770 2862 
Q 544 3141 544 3541 
Q 544 4100 942 4425 
Q 1341 4750 2034 4750 
Q 2731 4750 3128 4425 
Q 3525 4100 3525 3541 
Q 3525 3141 3298 2862 
Q 3072 2584 2669 2484 
Q 3125 2378 3379 2068 
Q 3634 1759 3634 1313 
Q 3634 634 3220 271 
Q 2806 -91 2034 -91 
Q 1263 -91 848 271 
Q 434 634 434 1313 
Q 434 1759 690 2068 
Q 947 2378 1403 2484 
z
M 1172 3481 
Q 1172 3119 1398 2916 
Q 1625 2713 2034 2713 
Q 2441 2713 2670 2916 
Q 2900 3119 2900 3481 
Q 2900 3844 2670 4047 
Q 2441 4250 2034 4250 
Q 1625 4250 1398 4047 
Q 1172 3844 1172 3481 
z
" transform="scale(0.015625)"/>
       </defs>
       <use xlink:href="#DejaVuSans-30"/>
       <use xlink:href="#DejaVuSans-2e" x="63.623047"/>
       <use xlink:href="#DejaVuSans-38" x="95.410156"/>
      </g>
     </g>
    </g>
    <g id="ytick_5">
     <g id="line2d_11">
      <g>
       <use xlink:href="#m94c23c9c2f" x="47.72" y="42.540331" style="stroke: #000000; stroke-width: 0.8"/>
      </g>
     </g>
     <g id="text_12">
      <!-- 0.9 -->
      <g transform="translate(24.816875 46.33955) scale(0.1 -0.1)">
       <defs>
        <path id="DejaVuSans-39" d="M 703 97 
L 703 672 
Q 941 559 1184 500 
Q 1428 441 1663 441 
Q 2288 441 2617 861 
Q 2947 1281 2994 2138 
Q 2813 1869 2534 1725 
Q 2256 1581 1919 1581 
Q 1219 1581 811 2004 
Q 403 2428 403 3163 
Q 403 3881 828 4315 
Q 1253 4750 1959 4750 
Q 2769 4750 3195 4129 
Q 3622 3509 3622 2328 
Q 3622 1225 3098 567 
Q 2575 -91 1691 -91 
Q 1453 -91 1209 -44 
Q 966 3 703 97 
z
M 1959 2075 
Q 2384 2075 2632 2365 
Q 2881 2656 2881 3163 
Q 2881 3666 2632 3958 
Q 2384 4250 1959 4250 
Q 1534 4250 1286 3958 
Q 1038 3666 1038 3163 
Q 1038 2656 1286 2365 
Q 1534 2075 1959 2075 
z
" transform="scale(0.015625)"/>
       </defs>
       <use xlink:href="#DejaVuSans-30"/>
       <use xlink:href="#DejaVuSans-2e" x="63.623047"/>
       <use xlink:href="#DejaVuSans-39" x="95.410156"/>
      </g>
     </g>
    </g>
    <g id="text_13">
     <!-- Score -->
     <g transform="translate(18.737188 136.251719) rotate(-90) scale(0.1 -0.1)">
      <defs>
       <path id="DejaVuSans-53" d="M 3425 4513 
L 3425 3897 
Q 3066 4069 2747 4153 
Q 2428 4238 2131 4238 
Q 1616 4238 1336 4038 
Q 1056 3838 1056 3469 
Q 1056 3159 1242 3001 
Q 1428 2844 1947 2747 
L 2328 2669 
Q 3034 2534 3370 2195 
Q 3706 1856 3706 1288 
Q 3706 609 3251 259 
Q 2797 -91 1919 -91 
Q 1588 -91 1214 -16 
Q 841 59 441 206 
L 441 856 
Q 825 641 1194 531 
Q 1563 422 1919 422 
Q 2459 422 2753 634 
Q 3047 847 3047 1241 
Q 3047 1584 2836 1778 
Q 2625 1972 2144 2069 
L 1759 2144 
Q 1053 2284 737 2584 
Q 422 2884 422 3419 
Q 422 4038 858 4394 
Q 1294 4750 2059 4750 
Q 2388 4750 2728 4690 
Q 3069 4631 3425 4513 
z
" transform="scale(0.015625)"/>
       <path id="DejaVuSans-63" d="M 3122 3366 
L 3122 2828 
Q 2878 2963 2633 3030 
Q 2388 3097 2138 3097 
Q 1578 3097 1268 2742 
Q 959 2388 959 1747 
Q 959 1106 1268 751 
Q 1578 397 2138 397 
Q 2388 397 2633 464 
Q 2878 531 3122 666 
L 3122 134 
Q 2881 22 2623 -34 
Q 2366 -91 2075 -91 
Q 1284 -91 818 406 
Q 353 903 353 1747 
Q 353 2603 823 3093 
Q 1294 3584 2113 3584 
Q 2378 3584 2631 3529 
Q 2884 3475 3122 3366 
z
" transform="scale(0.015625)"/>
       <path id="DejaVuSans-6f" d="M 1959 3097 
Q 1497 3097 1228 2736 
Q 959 2375 959 1747 
Q 959 1119 1226 758 
Q 1494 397 1959 397 
Q 2419 397 2687 759 
Q 2956 1122 2956 1747 
Q 2956 2369 2687 2733 
Q 2419 3097 1959 3097 
z
M 1959 3584 
Q 2709 3584 3137 3096 
Q 3566 2609 3566 1747 
Q 3566 888 3137 398 
Q 2709 -91 1959 -91 
Q 1206 -91 779 398 
Q 353 888 353 1747 
Q 353 2609 779 3096 
Q 1206 3584 1959 3584 
z
" transform="scale(0.015625)"/>
       <path id="DejaVuSans-72" d="M 2631 2963 
Q 2534 3019 2420 3045 
Q 2306 3072 2169 3072 
Q 1681 3072 1420 2755 
Q 1159 2438 1159 1844 
L 1159 0 
L 581 0 
L 581 3500 
L 1159 3500 
L 1159 2956 
Q 1341 3275 1631 3429 
Q 1922 3584 2338 3584 
Q 2397 3584 2469 3576 
Q 2541 3569 2628 3553 
L 2631 2963 
z
" transform="scale(0.015625)"/>
      </defs>
      <use xlink:href="#DejaVuSans-53"/>
      <use xlink:href="#DejaVuSans-63" x="63.476562"/>
      <use xlink:href="#DejaVuSans-6f" x="118.457031"/>
      <use xlink:href="#DejaVuSans-72" x="179.638672"/>
      <use xlink:href="#DejaVuSans-65" x="218.501953"/>
     </g>
    </g>
   </g>
   <g id="line2d_12">
    <path d="M 58.594394 101.172469 
L 75.324231 76.929175 
L 92.054068 68.46453 
L 108.783904 130.780634 
L 125.513741 70.867595 
L 142.243578 92.629538 
L 158.973415 82.309301 
L 175.703252 119.492028 
L 192.433089 101.770069 
L 209.162925 107.53627 
L 225.892762 81.420201 
L 242.622599 112.197516 
L 259.352436 141.201606 
L 276.082273 89.694183 
" clip-path="url(#p1d245a2bf0)" style="fill: none; stroke: #1f77b4; stroke-width: 1.5; stroke-linecap: square"/>
   </g>
   <g id="patch_3">
    <path d="M 47.72 209.93875 
L 47.72 34.56 
" style="fill: none; stroke: #000000; stroke-width: 0.8; stroke-linejoin: miter; stroke-linecap: square"/>
   </g>
   <g id="patch_4">
    <path d="M 286.956667 209.93875 
L 286.956667 34.56 
" style="fill: none; stroke: #000000; stroke-width: 0.8; stroke-linejoin: miter; stroke-linecap: square"/>
   </g>
   <g id="patch_5">
    <path d="M 47.72 209.93875 
L 286.956667 209.93875 
" style="fill: none; stroke: #000000; stroke-width: 0.8; stroke-linejoin: miter; stroke-linecap: square"/>
   </g>
   <g id="patch_6">
    <path d="M 47.72 34.56 
L 286.956667 34.56 
" style="fill: none; stroke: #000000; stroke-width: 0.8; stroke-linejoin: miter; stroke-linecap: square"/>
   </g>
  </g>
  <g id="axes_2">
   <g id="patch_7">
    <path d="M 313.956667 209.93875 
L 553.193333 209.93875 
L 553.193333 34.56 
L 313.956667 34.56 
z
" style="fill: #ffffff"/>
   </g>
   <g id="PolyCollection_2">
    <defs>
     <path id="m45d2b7e8cc" d="M 324.831061 -209.51541 
L 324.831061 -206.183951 
L 327.770086 -75.288247 
L 330.709111 -205.493983 
L 333.648137 -205.493983 
L 336.587162 -200.880751 
L 339.526188 -48.832345 
L 342.465213 -121.226001 
L 345.404238 -75.288247 
L 348.343264 -42.06125 
L 351.282289 -193.628344 
L 354.221314 -184.685403 
L 357.16034 -192.783426 
L 360.099365 -213.494664 
L 363.038391 -193.583595 
L 365.977416 -184.617889 
L 368.916441 -133.971024 
L 371.855467 -213.494664 
L 374.794492 -205.25351 
L 377.733518 -101.199335 
L 380.672543 -209.299576 
L 383.611568 -187.858436 
L 386.550594 -189.685805 
L 389.489619 -206.567816 
L 392.428645 -205.019855 
L 395.36767 -205.493983 
L 401.245721 -205.019855 
L 404.184746 -209.027529 
L 407.123771 -200.880751 
L 410.062797 -205.803844 
L 413.001822 -205.493983 
L 415.940848 -180.849523 
L 421.818898 -94.048909 
L 424.757924 -204.954392 
L 427.696949 -205.006102 
L 430.635975 -209.027529 
L 436.514025 -203.009815 
L 439.453051 -188.988797 
L 442.392076 -75.392591 
L 445.331102 -181.867819 
L 448.270127 -139.725126 
L 451.209152 -184.328837 
L 454.148178 -179.013927 
L 457.087203 -183.634812 
L 460.026229 -185.910172 
L 462.965254 -137.031925 
L 465.904279 -46.876746 
L 468.843305 -42.06125 
L 471.78233 -153.616179 
L 474.721355 -187.968427 
L 477.660381 -187.824669 
L 480.599406 -187.968427 
L 483.538432 -152.350396 
L 486.477457 -189.21733 
L 489.416482 -174.749102 
L 492.355508 -186.839942 
L 495.294533 -75.288247 
L 498.233559 -178.335627 
L 501.172584 -70.970789 
L 507.050635 -77.328248 
L 509.98966 -81.15001 
L 512.928686 -74.023847 
L 515.867711 -49.13346 
L 518.806736 -42.06125 
L 521.745762 -42.06125 
L 524.684787 -42.06125 
L 527.623812 -42.06125 
L 530.562838 -42.114659 
L 533.501863 -42.06125 
L 536.440889 -42.011191 
L 539.379914 -42.06125 
L 542.318939 -42.06125 
L 542.318939 -42.334777 
L 542.318939 -42.334777 
L 539.379914 -42.334777 
L 536.440889 -42.248072 
L 533.501863 -42.334777 
L 530.562838 -42.372543 
L 527.623812 -42.06125 
L 524.684787 -42.06125 
L 521.745762 -75.940225 
L 518.806736 -53.371606 
L 515.867711 -83.406566 
L 512.928686 -100.687844 
L 509.98966 -86.288344 
L 507.050635 -128.632127 
L 501.172584 -156.132669 
L 498.233559 -184.939438 
L 495.294533 -191.558117 
L 492.355508 -193.970935 
L 489.416482 -186.854137 
L 486.477457 -189.21733 
L 483.538432 -208.646265 
L 480.599406 -188.473897 
L 477.660381 -212.710562 
L 474.721355 -209.027529 
L 471.78233 -199.038225 
L 468.843305 -190.275839 
L 465.904279 -121.563742 
L 462.965254 -137.031925 
L 460.026229 -185.910172 
L 457.087203 -201.853724 
L 454.148178 -187.795928 
L 451.209152 -187.343972 
L 448.270127 -225.105458 
L 445.331102 -197.362568 
L 442.392076 -211.203393 
L 439.453051 -210.223054 
L 436.514025 -205.493983 
L 430.635975 -209.027529 
L 427.696949 -208.337561 
L 424.757924 -205.401404 
L 421.818898 -236.44962 
L 415.940848 -205.530574 
L 413.001822 -205.493983 
L 410.062797 -209.027529 
L 407.123771 -205.019855 
L 404.184746 -209.027529 
L 401.245721 -205.019855 
L 395.36767 -205.493983 
L 392.428645 -209.027529 
L 389.489619 -211.289507 
L 386.550594 -207.930201 
L 383.611568 -204.925506 
L 380.672543 -212.965111 
L 377.733518 -226.572043 
L 374.794492 -213.498074 
L 371.855467 -213.494664 
L 368.916441 -230.058078 
L 365.977416 -203.271022 
L 363.038391 -211.528508 
L 360.099365 -213.494664 
L 357.16034 -215.376631 
L 354.221314 -207.050926 
L 351.282289 -193.628344 
L 348.343264 -42.06125 
L 345.404238 -75.288247 
L 342.465213 -220.19948 
L 339.526188 -209.027529 
L 336.587162 -203.057035 
L 333.648137 -205.493983 
L 330.709111 -205.493983 
L 327.770086 -217.44 
L 324.831061 -209.51541 
z
" style="stroke: #1f77b4; stroke-opacity: 0.2"/>
    </defs>
    <g clip-path="url(#pe004c148e8)">
     <use xlink:href="#m45d2b7e8cc" x="0" y="252" style="fill: #1f77b4; fill-opacity: 0.2; stroke: #1f77b4; stroke-opacity: 0.2"/>
    </g>
   </g>
   <g id="matplotlib.axis_3">
    <g id="xtick_7">
     <g id="line2d_13">
      <g>
       <use xlink:href="#m3bf46ad72c" x="321.892035" y="209.93875" style="stroke: #000000; stroke-width: 0.8"/>
      </g>
     </g>
     <g id="text_14">
      <!-- 0 -->
      <g transform="translate(318.710785 224.537188) scale(0.1 -0.1)">
       <use xlink:href="#DejaVuSans-30"/>
      </g>
     </g>
    </g>
    <g id="xtick_8">
     <g id="line2d_14">
      <g>
       <use xlink:href="#m3bf46ad72c" x="380.672543" y="209.93875" style="stroke: #000000; stroke-width: 0.8"/>
      </g>
     </g>
     <g id="text_15">
      <!-- 20 -->
      <g transform="translate(374.310043 224.537188) scale(0.1 -0.1)">
       <use xlink:href="#DejaVuSans-32"/>
       <use xlink:href="#DejaVuSans-30" x="63.623047"/>
      </g>
     </g>
    </g>
    <g id="xtick_9">
     <g id="line2d_15">
      <g>
       <use xlink:href="#m3bf46ad72c" x="439.453051" y="209.93875" style="stroke: #000000; stroke-width: 0.8"/>
      </g>
     </g>
     <g id="text_16">
      <!-- 40 -->
      <g transform="translate(433.090551 224.537188) scale(0.1 -0.1)">
       <defs>
        <path id="DejaVuSans-34" d="M 2419 4116 
L 825 1625 
L 2419 1625 
L 2419 4116 
z
M 2253 4666 
L 3047 4666 
L 3047 1625 
L 3713 1625 
L 3713 1100 
L 3047 1100 
L 3047 0 
L 2419 0 
L 2419 1100 
L 313 1100 
L 313 1709 
L 2253 4666 
z
" transform="scale(0.015625)"/>
       </defs>
       <use xlink:href="#DejaVuSans-34"/>
       <use xlink:href="#DejaVuSans-30" x="63.623047"/>
      </g>
     </g>
    </g>
    <g id="xtick_10">
     <g id="line2d_16">
      <g>
       <use xlink:href="#m3bf46ad72c" x="498.233559" y="209.93875" style="stroke: #000000; stroke-width: 0.8"/>
      </g>
     </g>
     <g id="text_17">
      <!-- 60 -->
      <g transform="translate(491.871059 224.537188) scale(0.1 -0.1)">
       <use xlink:href="#DejaVuSans-36"/>
       <use xlink:href="#DejaVuSans-30" x="63.623047"/>
      </g>
     </g>
    </g>
    <g id="text_18">
     <!-- min_samples_leaf -->
     <g transform="translate(389.073438 238.215313) scale(0.1 -0.1)">
      <defs>
       <path id="DejaVuSans-69" d="M 603 3500 
L 1178 3500 
L 1178 0 
L 603 0 
L 603 3500 
z
M 603 4863 
L 1178 4863 
L 1178 4134 
L 603 4134 
L 603 4863 
z
" transform="scale(0.015625)"/>
       <path id="DejaVuSans-6e" d="M 3513 2113 
L 3513 0 
L 2938 0 
L 2938 2094 
Q 2938 2591 2744 2837 
Q 2550 3084 2163 3084 
Q 1697 3084 1428 2787 
Q 1159 2491 1159 1978 
L 1159 0 
L 581 0 
L 581 3500 
L 1159 3500 
L 1159 2956 
Q 1366 3272 1645 3428 
Q 1925 3584 2291 3584 
Q 2894 3584 3203 3211 
Q 3513 2838 3513 2113 
z
" transform="scale(0.015625)"/>
       <path id="DejaVuSans-73" d="M 2834 3397 
L 2834 2853 
Q 2591 2978 2328 3040 
Q 2066 3103 1784 3103 
Q 1356 3103 1142 2972 
Q 928 2841 928 2578 
Q 928 2378 1081 2264 
Q 1234 2150 1697 2047 
L 1894 2003 
Q 2506 1872 2764 1633 
Q 3022 1394 3022 966 
Q 3022 478 2636 193 
Q 2250 -91 1575 -91 
Q 1294 -91 989 -36 
Q 684 19 347 128 
L 347 722 
Q 666 556 975 473 
Q 1284 391 1588 391 
Q 1994 391 2212 530 
Q 2431 669 2431 922 
Q 2431 1156 2273 1281 
Q 2116 1406 1581 1522 
L 1381 1569 
Q 847 1681 609 1914 
Q 372 2147 372 2553 
Q 372 3047 722 3315 
Q 1072 3584 1716 3584 
Q 2034 3584 2315 3537 
Q 2597 3491 2834 3397 
z
" transform="scale(0.015625)"/>
       <path id="DejaVuSans-6c" d="M 603 4863 
L 1178 4863 
L 1178 0 
L 603 0 
L 603 4863 
z
" transform="scale(0.015625)"/>
       <path id="DejaVuSans-66" d="M 2375 4863 
L 2375 4384 
L 1825 4384 
Q 1516 4384 1395 4259 
Q 1275 4134 1275 3809 
L 1275 3500 
L 2222 3500 
L 2222 3053 
L 1275 3053 
L 1275 0 
L 697 0 
L 697 3053 
L 147 3053 
L 147 3500 
L 697 3500 
L 697 3744 
Q 697 4328 969 4595 
Q 1241 4863 1831 4863 
L 2375 4863 
z
" transform="scale(0.015625)"/>
      </defs>
      <use xlink:href="#DejaVuSans-6d"/>
      <use xlink:href="#DejaVuSans-69" x="97.412109"/>
      <use xlink:href="#DejaVuSans-6e" x="125.195312"/>
      <use xlink:href="#DejaVuSans-5f" x="188.574219"/>
      <use xlink:href="#DejaVuSans-73" x="238.574219"/>
      <use xlink:href="#DejaVuSans-61" x="290.673828"/>
      <use xlink:href="#DejaVuSans-6d" x="351.953125"/>
      <use xlink:href="#DejaVuSans-70" x="449.365234"/>
      <use xlink:href="#DejaVuSans-6c" x="512.841797"/>
      <use xlink:href="#DejaVuSans-65" x="540.625"/>
      <use xlink:href="#DejaVuSans-73" x="602.148438"/>
      <use xlink:href="#DejaVuSans-5f" x="654.248047"/>
      <use xlink:href="#DejaVuSans-6c" x="704.248047"/>
      <use xlink:href="#DejaVuSans-65" x="732.03125"/>
      <use xlink:href="#DejaVuSans-61" x="793.554688"/>
      <use xlink:href="#DejaVuSans-66" x="854.833984"/>
     </g>
    </g>
   </g>
   <g id="matplotlib.axis_4">
    <g id="ytick_6">
     <g id="line2d_17">
      <g>
       <use xlink:href="#m94c23c9c2f" x="313.956667" y="191.338926" style="stroke: #000000; stroke-width: 0.8"/>
      </g>
     </g>
    </g>
    <g id="ytick_7">
     <g id="line2d_18">
      <g>
       <use xlink:href="#m94c23c9c2f" x="313.956667" y="154.139277" style="stroke: #000000; stroke-width: 0.8"/>
      </g>
     </g>
    </g>
    <g id="ytick_8">
     <g id="line2d_19">
      <g>
       <use xlink:href="#m94c23c9c2f" x="313.956667" y="116.939628" style="stroke: #000000; stroke-width: 0.8"/>
      </g>
     </g>
    </g>
    <g id="ytick_9">
     <g id="line2d_20">
      <g>
       <use xlink:href="#m94c23c9c2f" x="313.956667" y="79.73998" style="stroke: #000000; stroke-width: 0.8"/>
      </g>
     </g>
    </g>
    <g id="ytick_10">
     <g id="line2d_21">
      <g>
       <use xlink:href="#m94c23c9c2f" x="313.956667" y="42.540331" style="stroke: #000000; stroke-width: 0.8"/>
      </g>
     </g>
    </g>
   </g>
   <g id="line2d_22">
    <path d="M 324.831061 44.15032 
L 327.770086 105.635876 
L 330.709111 46.506017 
L 333.648137 46.506017 
L 336.587162 50.031107 
L 339.526188 123.070063 
L 342.465213 81.28726 
L 345.404238 176.711753 
L 348.343264 209.93875 
L 351.282289 58.371656 
L 354.221314 56.131835 
L 357.16034 47.919971 
L 360.099365 38.505336 
L 363.038391 49.443949 
L 365.977416 58.055544 
L 368.916441 69.985449 
L 371.855467 38.505336 
L 374.794492 42.624208 
L 377.733518 88.114311 
L 380.672543 40.867656 
L 383.611568 55.608029 
L 386.550594 53.191997 
L 389.489619 43.071339 
L 392.428645 44.976308 
L 395.36767 46.506017 
L 401.245721 46.980145 
L 404.184746 42.972471 
L 407.123771 49.049697 
L 410.062797 44.584314 
L 413.001822 46.506017 
L 415.940848 58.809952 
L 421.818898 86.750735 
L 424.757924 46.822102 
L 427.696949 45.328168 
L 430.635975 42.972471 
L 436.514025 47.748101 
L 439.453051 52.394074 
L 442.392076 108.702008 
L 445.331102 62.384807 
L 448.270127 69.584708 
L 451.209152 66.163596 
L 454.148178 68.595073 
L 457.087203 59.255732 
L 460.026229 66.089828 
L 462.965254 114.968075 
L 465.904279 167.779756 
L 468.843305 135.831456 
L 471.78233 75.672798 
L 474.721355 53.502022 
L 477.660381 51.732385 
L 480.599406 63.778838 
L 483.538432 71.50167 
L 486.477457 62.78267 
L 489.416482 71.19838 
L 492.355508 61.594562 
L 495.294533 118.576818 
L 498.233559 70.362467 
L 501.172584 138.448271 
L 507.050635 149.019812 
L 509.98966 168.280823 
L 512.928686 164.644155 
L 515.867711 185.729987 
L 518.806736 204.283572 
L 521.745762 192.999262 
L 524.684787 209.93875 
L 527.623812 209.93875 
L 530.562838 209.756399 
L 533.501863 209.801987 
L 536.440889 209.870368 
L 539.379914 209.801987 
L 542.318939 209.801987 
" clip-path="url(#pe004c148e8)" style="fill: none; stroke: #1f77b4; stroke-width: 1.5; stroke-linecap: square"/>
   </g>
   <g id="patch_8">
    <path d="M 313.956667 209.93875 
L 313.956667 34.56 
" style="fill: none; stroke: #000000; stroke-width: 0.8; stroke-linejoin: miter; stroke-linecap: square"/>
   </g>
   <g id="patch_9">
    <path d="M 553.193333 209.93875 
L 553.193333 34.56 
" style="fill: none; stroke: #000000; stroke-width: 0.8; stroke-linejoin: miter; stroke-linecap: square"/>
   </g>
   <g id="patch_10">
    <path d="M 313.956667 209.93875 
L 553.193333 209.93875 
" style="fill: none; stroke: #000000; stroke-width: 0.8; stroke-linejoin: miter; stroke-linecap: square"/>
   </g>
   <g id="patch_11">
    <path d="M 313.956667 34.56 
L 553.193333 34.56 
" style="fill: none; stroke: #000000; stroke-width: 0.8; stroke-linejoin: miter; stroke-linecap: square"/>
   </g>
  </g>
  <g id="axes_3">
   <g id="patch_12">
    <path d="M 580.193333 209.93875 
L 819.43 209.93875 
L 819.43 34.56 
L 580.193333 34.56 
z
" style="fill: #ffffff"/>
   </g>
   <g id="PolyCollection_3">
    <defs>
     <path id="m0f2cdd623b" d="M 591.067727 -205.493983 
L 591.067727 -205.493983 
L 592.53724 -213.494664 
L 596.945778 -205.493983 
L 599.884803 -199.385664 
L 602.823829 -42.334777 
L 605.762854 -209.027529 
L 607.232367 -205.493983 
L 608.70188 -205.493983 
L 613.110418 -205.019855 
L 614.57993 -187.968427 
L 616.049443 -95.436654 
L 617.518956 -207.374647 
L 620.457981 -187.968427 
L 623.397007 -106.505033 
L 624.866519 -53.371606 
L 626.336032 -184.770393 
L 627.805545 -86.288344 
L 632.214083 -192.463979 
L 633.683595 -39.621214 
L 635.153108 -191.558117 
L 641.031159 -208.912017 
L 642.500672 -200.880751 
L 643.970184 -190.275839 
L 645.439697 -213.494664 
L 646.90921 -175.960195 
L 648.378722 -113.9832 
L 649.848235 -83.134194 
L 651.317748 -205.493983 
L 652.78726 -185.910172 
L 654.256773 -189.21733 
L 655.726286 -174.749102 
L 657.195799 -184.229817 
L 660.134824 -205.803844 
L 666.012875 -205.019855 
L 667.482387 -201.697525 
L 668.9519 -81.15001 
L 671.890925 -77.402793 
L 674.829951 -203.009815 
L 676.299464 -187.968427 
L 677.768976 -187.725206 
L 679.238489 -91.749213 
L 680.708002 -53.371606 
L 682.177514 -205.019855 
L 683.647027 -141.779188 
L 685.11654 -103.250884 
L 686.586052 -184.770393 
L 688.055565 -183.204888 
L 689.525078 -103.98179 
L 690.99459 -205.019855 
L 692.464103 -136.197386 
L 695.403129 -182.692039 
L 696.872641 -184.770393 
L 698.342154 -190.275839 
L 699.811667 -42.334777 
L 701.281179 -205.019855 
L 702.750692 -210.653681 
L 704.220205 -209.027529 
L 707.15923 -205.019855 
L 710.098256 -42.06125 
L 711.567768 -42.06125 
L 713.037281 -42.06125 
L 714.506794 -191.902186 
L 715.976306 -42.334777 
L 717.445819 -209.027529 
L 718.915332 -205.019855 
L 720.384844 -42.06125 
L 723.32387 -42.06125 
L 724.793382 -205.493983 
L 726.262895 -184.770393 
L 727.732408 -58.979304 
L 729.201921 -205.493983 
L 730.671433 -190.275839 
L 732.140946 -186.854137 
L 733.610459 -187.695754 
L 735.079971 -209.027529 
L 738.018997 -79.345996 
L 739.488509 -205.493983 
L 740.958022 -75.863815 
L 742.427535 -98.741356 
L 745.36656 -185.910172 
L 746.836073 -42.06125 
L 749.775098 -96.03405 
L 752.714124 -42.334777 
L 754.183636 -184.770393 
L 755.653149 -42.06125 
L 757.122662 -180.727345 
L 758.592174 -184.770393 
L 760.061687 -175.567647 
L 761.5312 -58.453013 
L 763.000713 -142.191623 
L 765.939738 -70.298459 
L 767.409251 -42.06125 
L 770.348276 -42.06125 
L 771.817789 -184.770393 
L 774.756814 -42.334777 
L 776.226327 -72.905606 
L 779.165352 -86.117091 
L 782.104378 -75.288247 
L 786.512916 -75.288247 
L 787.982428 -42.334777 
L 789.451941 -75.288247 
L 790.921454 -42.06125 
L 795.329992 -42.06125 
L 796.799505 -53.371606 
L 798.269017 -42.06125 
L 799.73853 -42.06125 
L 801.208043 -57.814403 
L 802.677555 -48.832345 
L 805.616581 -42.06125 
L 808.555606 -42.06125 
L 808.555606 -48.832345 
L 808.555606 -48.832345 
L 805.616581 -42.06125 
L 802.677555 -48.832345 
L 801.208043 -57.814403 
L 799.73853 -42.06125 
L 798.269017 -42.334777 
L 796.799505 -53.371606 
L 795.329992 -57.814403 
L 790.921454 -53.371606 
L 789.451941 -75.288247 
L 787.982428 -42.334777 
L 786.512916 -75.288247 
L 782.104378 -75.288247 
L 779.165352 -86.117091 
L 776.226327 -102.58142 
L 774.756814 -86.117091 
L 771.817789 -184.770393 
L 770.348276 -184.770393 
L 767.409251 -177.475962 
L 765.939738 -212.739585 
L 763.000713 -209.027529 
L 761.5312 -176.386763 
L 760.061687 -187.968427 
L 758.592174 -192.463979 
L 757.122662 -180.727345 
L 755.653149 -209.027529 
L 754.183636 -184.770393 
L 752.714124 -209.027529 
L 749.775098 -186.090085 
L 746.836073 -205.019855 
L 745.36656 -185.910172 
L 742.427535 -212.505479 
L 740.958022 -213.318651 
L 739.488509 -205.493983 
L 738.018997 -79.345996 
L 735.079971 -210.653681 
L 733.610459 -206.007508 
L 732.140946 -209.027529 
L 730.671433 -190.275839 
L 729.201921 -209.027529 
L 727.732408 -212.650576 
L 726.262895 -184.770393 
L 724.793382 -205.493983 
L 723.32387 -42.06125 
L 720.384844 -184.770393 
L 718.915332 -205.019855 
L 717.445819 -209.027529 
L 715.976306 -42.334777 
L 714.506794 -212.020467 
L 713.037281 -42.06125 
L 711.567768 -42.06125 
L 710.098256 -42.06125 
L 707.15923 -205.019855 
L 704.220205 -209.027529 
L 702.750692 -210.653681 
L 701.281179 -205.019855 
L 699.811667 -205.493983 
L 698.342154 -190.275839 
L 696.872641 -184.770393 
L 695.403129 -204.841038 
L 692.464103 -211.192973 
L 690.99459 -209.027529 
L 689.525078 -103.98179 
L 688.055565 -183.204888 
L 686.586052 -203.009815 
L 685.11654 -213.157396 
L 683.647027 -205.493983 
L 682.177514 -205.019855 
L 680.708002 -53.371606 
L 679.238489 -228.609264 
L 677.768976 -205.493983 
L 676.299464 -205.019855 
L 674.829951 -203.057035 
L 671.890925 -205.019855 
L 668.9519 -81.15001 
L 667.482387 -206.329729 
L 666.012875 -205.019855 
L 660.134824 -205.803844 
L 657.195799 -205.493983 
L 655.726286 -174.749102 
L 654.256773 -189.21733 
L 652.78726 -193.628344 
L 651.317748 -205.493983 
L 649.848235 -220.14295 
L 648.378722 -113.9832 
L 646.90921 -175.960195 
L 645.439697 -213.494664 
L 643.970184 -213.494664 
L 642.500672 -210.874837 
L 641.031159 -209.027529 
L 635.153108 -205.803844 
L 633.683595 -182.053663 
L 632.214083 -192.463979 
L 627.805545 -209.027529 
L 626.336032 -203.009815 
L 624.866519 -205.803844 
L 623.397007 -238.841666 
L 620.457981 -187.968427 
L 617.518956 -207.374647 
L 616.049443 -241.368832 
L 614.57993 -190.275839 
L 613.110418 -209.027529 
L 608.70188 -205.493983 
L 607.232367 -205.493983 
L 605.762854 -209.027529 
L 602.823829 -192.463979 
L 599.884803 -199.385664 
L 596.945778 -205.493983 
L 592.53724 -217.44 
L 591.067727 -205.493983 
z
" style="stroke: #1f77b4; stroke-opacity: 0.2"/>
    </defs>
    <g clip-path="url(#p64574385e9)">
     <use xlink:href="#m0f2cdd623b" x="0" y="252" style="fill: #1f77b4; fill-opacity: 0.2; stroke: #1f77b4; stroke-opacity: 0.2"/>
    </g>
   </g>
   <g id="matplotlib.axis_5">
    <g id="xtick_11">
     <g id="line2d_23">
      <g>
       <use xlink:href="#m3bf46ad72c" x="588.128702" y="209.93875" style="stroke: #000000; stroke-width: 0.8"/>
      </g>
     </g>
     <g id="text_19">
      <!-- 0 -->
      <g transform="translate(584.947452 224.537188) scale(0.1 -0.1)">
       <use xlink:href="#DejaVuSans-30"/>
      </g>
     </g>
    </g>
    <g id="xtick_12">
     <g id="line2d_24">
      <g>
       <use xlink:href="#m3bf46ad72c" x="624.866519" y="209.93875" style="stroke: #000000; stroke-width: 0.8"/>
      </g>
     </g>
     <g id="text_20">
      <!-- 25 -->
      <g transform="translate(618.504019 224.537188) scale(0.1 -0.1)">
       <use xlink:href="#DejaVuSans-32"/>
       <use xlink:href="#DejaVuSans-35" x="63.623047"/>
      </g>
     </g>
    </g>
    <g id="xtick_13">
     <g id="line2d_25">
      <g>
       <use xlink:href="#m3bf46ad72c" x="661.604337" y="209.93875" style="stroke: #000000; stroke-width: 0.8"/>
      </g>
     </g>
     <g id="text_21">
      <!-- 50 -->
      <g transform="translate(655.241837 224.537188) scale(0.1 -0.1)">
       <use xlink:href="#DejaVuSans-35"/>
       <use xlink:href="#DejaVuSans-30" x="63.623047"/>
      </g>
     </g>
    </g>
    <g id="xtick_14">
     <g id="line2d_26">
      <g>
       <use xlink:href="#m3bf46ad72c" x="698.342154" y="209.93875" style="stroke: #000000; stroke-width: 0.8"/>
      </g>
     </g>
     <g id="text_22">
      <!-- 75 -->
      <g transform="translate(691.979654 224.537188) scale(0.1 -0.1)">
       <use xlink:href="#DejaVuSans-37"/>
       <use xlink:href="#DejaVuSans-35" x="63.623047"/>
      </g>
     </g>
    </g>
    <g id="xtick_15">
     <g id="line2d_27">
      <g>
       <use xlink:href="#m3bf46ad72c" x="735.079971" y="209.93875" style="stroke: #000000; stroke-width: 0.8"/>
      </g>
     </g>
     <g id="text_23">
      <!-- 100 -->
      <g transform="translate(725.536221 224.537188) scale(0.1 -0.1)">
       <use xlink:href="#DejaVuSans-31"/>
       <use xlink:href="#DejaVuSans-30" x="63.623047"/>
       <use xlink:href="#DejaVuSans-30" x="127.246094"/>
      </g>
     </g>
    </g>
    <g id="xtick_16">
     <g id="line2d_28">
      <g>
       <use xlink:href="#m3bf46ad72c" x="771.817789" y="209.93875" style="stroke: #000000; stroke-width: 0.8"/>
      </g>
     </g>
     <g id="text_24">
      <!-- 125 -->
      <g transform="translate(762.274039 224.537188) scale(0.1 -0.1)">
       <use xlink:href="#DejaVuSans-31"/>
       <use xlink:href="#DejaVuSans-32" x="63.623047"/>
       <use xlink:href="#DejaVuSans-35" x="127.246094"/>
      </g>
     </g>
    </g>
    <g id="xtick_17">
     <g id="line2d_29">
      <g>
       <use xlink:href="#m3bf46ad72c" x="808.555606" y="209.93875" style="stroke: #000000; stroke-width: 0.8"/>
      </g>
     </g>
     <g id="text_25">
      <!-- 150 -->
      <g transform="translate(799.011856 224.537188) scale(0.1 -0.1)">
       <use xlink:href="#DejaVuSans-31"/>
       <use xlink:href="#DejaVuSans-35" x="63.623047"/>
       <use xlink:href="#DejaVuSans-30" x="127.246094"/>
      </g>
     </g>
    </g>
    <g id="text_26">
     <!-- min_samples_split -->
     <g transform="translate(654.08276 238.215313) scale(0.1 -0.1)">
      <use xlink:href="#DejaVuSans-6d"/>
      <use xlink:href="#DejaVuSans-69" x="97.412109"/>
      <use xlink:href="#DejaVuSans-6e" x="125.195312"/>
      <use xlink:href="#DejaVuSans-5f" x="188.574219"/>
      <use xlink:href="#DejaVuSans-73" x="238.574219"/>
      <use xlink:href="#DejaVuSans-61" x="290.673828"/>
      <use xlink:href="#DejaVuSans-6d" x="351.953125"/>
      <use xlink:href="#DejaVuSans-70" x="449.365234"/>
      <use xlink:href="#DejaVuSans-6c" x="512.841797"/>
      <use xlink:href="#DejaVuSans-65" x="540.625"/>
      <use xlink:href="#DejaVuSans-73" x="602.148438"/>
      <use xlink:href="#DejaVuSans-5f" x="654.248047"/>
      <use xlink:href="#DejaVuSans-73" x="704.248047"/>
      <use xlink:href="#DejaVuSans-70" x="756.347656"/>
      <use xlink:href="#DejaVuSans-6c" x="819.824219"/>
      <use xlink:href="#DejaVuSans-69" x="847.607422"/>
      <use xlink:href="#DejaVuSans-74" x="875.390625"/>
     </g>
    </g>
   </g>
   <g id="matplotlib.axis_6">
    <g id="ytick_11">
     <g id="line2d_30">
      <g>
       <use xlink:href="#m94c23c9c2f" x="580.193333" y="191.338926" style="stroke: #000000; stroke-width: 0.8"/>
      </g>
     </g>
    </g>
    <g id="ytick_12">
     <g id="line2d_31">
      <g>
       <use xlink:href="#m94c23c9c2f" x="580.193333" y="154.139277" style="stroke: #000000; stroke-width: 0.8"/>
      </g>
     </g>
    </g>
    <g id="ytick_13">
     <g id="line2d_32">
      <g>
       <use xlink:href="#m94c23c9c2f" x="580.193333" y="116.939628" style="stroke: #000000; stroke-width: 0.8"/>
      </g>
     </g>
    </g>
    <g id="ytick_14">
     <g id="line2d_33">
      <g>
       <use xlink:href="#m94c23c9c2f" x="580.193333" y="79.73998" style="stroke: #000000; stroke-width: 0.8"/>
      </g>
     </g>
    </g>
    <g id="ytick_15">
     <g id="line2d_34">
      <g>
       <use xlink:href="#m94c23c9c2f" x="580.193333" y="42.540331" style="stroke: #000000; stroke-width: 0.8"/>
      </g>
     </g>
    </g>
   </g>
   <g id="line2d_35">
    <path d="M 591.067727 46.506017 
L 592.53724 36.532668 
L 596.945778 46.506017 
L 599.884803 52.614336 
L 602.823829 134.600622 
L 605.762854 42.972471 
L 607.232367 46.506017 
L 608.70188 46.506017 
L 613.110418 44.976308 
L 614.57993 62.877867 
L 616.049443 83.597257 
L 617.518956 44.625353 
L 620.457981 64.031573 
L 623.397007 79.32665 
L 624.866519 122.412275 
L 626.336032 58.109896 
L 627.805545 104.342064 
L 632.214083 59.536021 
L 633.683595 141.162561 
L 635.153108 53.319019 
L 641.031159 43.030227 
L 642.500672 46.122206 
L 643.970184 50.114748 
L 645.439697 38.505336 
L 646.90921 76.039805 
L 648.378722 138.0168 
L 649.848235 100.361428 
L 651.317748 46.506017 
L 652.78726 62.230742 
L 654.256773 62.78267 
L 655.726286 77.250898 
L 657.195799 57.1381 
L 660.134824 46.196156 
L 666.012875 46.980145 
L 667.482387 47.986373 
L 668.9519 170.84999 
L 671.890925 110.788676 
L 674.829951 48.966575 
L 676.299464 55.505859 
L 677.768976 55.390405 
L 679.238489 91.820762 
L 680.708002 198.628394 
L 682.177514 46.980145 
L 683.647027 78.363414 
L 685.11654 93.79586 
L 686.586052 58.109896 
L 688.055565 68.795112 
L 689.525078 148.01821 
L 690.99459 44.976308 
L 692.464103 78.30482 
L 695.403129 58.233462 
L 696.872641 67.229607 
L 698.342154 61.724161 
L 699.811667 128.08562 
L 701.281179 46.980145 
L 702.750692 41.346319 
L 704.220205 42.972471 
L 707.15923 46.980145 
L 710.098256 209.93875 
L 711.567768 209.93875 
L 713.037281 209.93875 
L 714.506794 50.038674 
L 715.976306 209.665223 
L 717.445819 42.972471 
L 718.915332 46.980145 
L 720.384844 138.584178 
L 723.32387 209.93875 
L 724.793382 46.506017 
L 726.262895 67.229607 
L 727.732408 116.18506 
L 729.201921 44.739244 
L 730.671433 61.724161 
L 732.140946 54.059167 
L 733.610459 55.148369 
L 735.079971 42.159395 
L 738.018997 172.654004 
L 739.488509 46.506017 
L 740.958022 107.408767 
L 742.427535 96.376583 
L 745.36656 66.089828 
L 746.836073 128.459447 
L 749.775098 110.937932 
L 752.714124 126.318847 
L 754.183636 67.229607 
L 755.653149 126.455611 
L 757.122662 71.272655 
L 758.592174 63.382814 
L 760.061687 70.231963 
L 761.5312 134.580112 
L 763.000713 76.390424 
L 765.939738 110.480978 
L 767.409251 142.231394 
L 770.348276 138.584178 
L 771.817789 67.229607 
L 774.756814 187.774066 
L 776.226327 164.256487 
L 779.165352 165.882909 
L 782.104378 176.711753 
L 786.512916 176.711753 
L 787.982428 209.665223 
L 789.451941 176.711753 
L 790.921454 204.283572 
L 795.329992 202.062173 
L 796.799505 198.628394 
L 798.269017 209.801987 
L 799.73853 209.93875 
L 801.208043 194.185597 
L 802.677555 203.167655 
L 805.616581 209.93875 
L 808.555606 206.553203 
" clip-path="url(#p64574385e9)" style="fill: none; stroke: #1f77b4; stroke-width: 1.5; stroke-linecap: square"/>
   </g>
   <g id="patch_13">
    <path d="M 580.193333 209.93875 
L 580.193333 34.56 
" style="fill: none; stroke: #000000; stroke-width: 0.8; stroke-linejoin: miter; stroke-linecap: square"/>
   </g>
   <g id="patch_14">
    <path d="M 819.43 209.93875 
L 819.43 34.56 
" style="fill: none; stroke: #000000; stroke-width: 0.8; stroke-linejoin: miter; stroke-linecap: square"/>
   </g>
   <g id="patch_15">
    <path d="M 580.193333 209.93875 
L 819.43 209.93875 
" style="fill: none; stroke: #000000; stroke-width: 0.8; stroke-linejoin: miter; stroke-linecap: square"/>
   </g>
   <g id="patch_16">
    <path d="M 580.193333 34.56 
L 819.43 34.56 
" style="fill: none; stroke: #000000; stroke-width: 0.8; stroke-linejoin: miter; stroke-linecap: square"/>
   </g>
   <g id="legend_1">
    <g id="patch_17">
     <path d="M 587.193333 204.93875 
L 660.760521 204.93875 
Q 662.760521 204.93875 662.760521 202.93875 
L 662.760521 159.904375 
Q 662.760521 157.904375 660.760521 157.904375 
L 587.193333 157.904375 
Q 585.193333 157.904375 585.193333 159.904375 
L 585.193333 202.93875 
Q 585.193333 204.93875 587.193333 204.93875 
z
" style="fill: #ffffff; opacity: 0.8; stroke: #cccccc; stroke-linejoin: miter"/>
    </g>
    <g id="line2d_36">
     <path d="M 589.193333 166.002813 
L 599.193333 166.002813 
L 609.193333 166.002813 
" style="fill: none; stroke: #1f77b4; stroke-width: 1.5; stroke-linecap: square"/>
    </g>
    <g id="text_27">
     <!-- mean -->
     <g transform="translate(617.193333 169.502813) scale(0.1 -0.1)">
      <use xlink:href="#DejaVuSans-6d"/>
      <use xlink:href="#DejaVuSans-65" x="97.412109"/>
      <use xlink:href="#DejaVuSans-61" x="158.935547"/>
      <use xlink:href="#DejaVuSans-6e" x="220.214844"/>
     </g>
    </g>
    <g id="patch_18">
     <path d="M 589.193333 184.180937 
L 609.193333 184.180937 
L 609.193333 177.180937 
L 589.193333 177.180937 
z
" style="fill: #1f77b4; opacity: 0.2"/>
    </g>
    <g id="text_28">
     <!-- +/- SD -->
     <g transform="translate(617.193333 184.180937) scale(0.1 -0.1)">
      <defs>
       <path id="DejaVuSans-2b" d="M 2944 4013 
L 2944 2272 
L 4684 2272 
L 4684 1741 
L 2944 1741 
L 2944 0 
L 2419 0 
L 2419 1741 
L 678 1741 
L 678 2272 
L 2419 2272 
L 2419 4013 
L 2944 4013 
z
" transform="scale(0.015625)"/>
       <path id="DejaVuSans-2f" d="M 1625 4666 
L 2156 4666 
L 531 -594 
L 0 -594 
L 1625 4666 
z
" transform="scale(0.015625)"/>
       <path id="DejaVuSans-2d" d="M 313 2009 
L 1997 2009 
L 1997 1497 
L 313 1497 
L 313 2009 
z
" transform="scale(0.015625)"/>
       <path id="DejaVuSans-20" transform="scale(0.015625)"/>
       <path id="DejaVuSans-44" d="M 1259 4147 
L 1259 519 
L 2022 519 
Q 2988 519 3436 956 
Q 3884 1394 3884 2338 
Q 3884 3275 3436 3711 
Q 2988 4147 2022 4147 
L 1259 4147 
z
M 628 4666 
L 1925 4666 
Q 3281 4666 3915 4102 
Q 4550 3538 4550 2338 
Q 4550 1131 3912 565 
Q 3275 0 1925 0 
L 628 0 
L 628 4666 
z
" transform="scale(0.015625)"/>
      </defs>
      <use xlink:href="#DejaVuSans-2b"/>
      <use xlink:href="#DejaVuSans-2f" x="83.789062"/>
      <use xlink:href="#DejaVuSans-2d" x="117.480469"/>
      <use xlink:href="#DejaVuSans-20" x="153.564453"/>
      <use xlink:href="#DejaVuSans-53" x="185.351562"/>
      <use xlink:href="#DejaVuSans-44" x="248.828125"/>
     </g>
    </g>
    <g id="patch_19">
     <path d="M 589.193333 198.859062 
L 609.193333 198.859062 
L 609.193333 191.859062 
L 589.193333 191.859062 
z
" style="fill: #808080; opacity: 0.3"/>
    </g>
    <g id="text_29">
     <!-- samples -->
     <g transform="translate(617.193333 198.859062) scale(0.1 -0.1)">
      <use xlink:href="#DejaVuSans-73"/>
      <use xlink:href="#DejaVuSans-61" x="52.099609"/>
      <use xlink:href="#DejaVuSans-6d" x="113.378906"/>
      <use xlink:href="#DejaVuSans-70" x="210.791016"/>
      <use xlink:href="#DejaVuSans-6c" x="274.267578"/>
      <use xlink:href="#DejaVuSans-65" x="302.050781"/>
      <use xlink:href="#DejaVuSans-73" x="363.574219"/>
     </g>
    </g>
   </g>
  </g>
  <g id="axes_4">
   <g id="patch_20">
    <path d="M 58.594394 209.93875 
L 58.594394 34.56 
L 80.343182 34.56 
L 80.343182 159.171217 
L 102.09197 159.171217 
L 102.09197 149.940757 
L 123.840758 149.940757 
L 123.840758 66.866612 
L 145.589545 66.866612 
L 145.589545 163.786447 
L 167.338333 163.786447 
L 167.338333 131.479836 
L 189.087121 131.479836 
L 189.087121 66.866612 
L 210.835909 66.866612 
L 210.835909 145.325526 
L 232.584697 145.325526 
L 232.584697 159.171217 
L 254.333485 159.171217 
L 254.333485 99.173224 
L 276.082273 99.173224 
L 276.082273 209.93875 
" clip-path="url(#p1d245a2bf0)" style="fill: #808080; opacity: 0.3"/>
   </g>
   <g id="matplotlib.axis_7">
    <g id="ytick_16">
     <g id="line2d_37">
      <defs>
       <path id="m5966b170ec" d="M 0 0 
L 3.5 0 
" style="stroke: #000000; stroke-width: 0.8"/>
      </defs>
      <g>
       <use xlink:href="#m5966b170ec" x="286.956667" y="209.93875" style="stroke: #000000; stroke-width: 0.8"/>
      </g>
     </g>
    </g>
    <g id="ytick_17">
     <g id="line2d_38">
      <g>
       <use xlink:href="#m5966b170ec" x="286.956667" y="186.862599" style="stroke: #000000; stroke-width: 0.8"/>
      </g>
     </g>
    </g>
    <g id="ytick_18">
     <g id="line2d_39">
      <g>
       <use xlink:href="#m5966b170ec" x="286.956667" y="163.786447" style="stroke: #000000; stroke-width: 0.8"/>
      </g>
     </g>
    </g>
    <g id="ytick_19">
     <g id="line2d_40">
      <g>
       <use xlink:href="#m5966b170ec" x="286.956667" y="140.710296" style="stroke: #000000; stroke-width: 0.8"/>
      </g>
     </g>
    </g>
    <g id="ytick_20">
     <g id="line2d_41">
      <g>
       <use xlink:href="#m5966b170ec" x="286.956667" y="117.634145" style="stroke: #000000; stroke-width: 0.8"/>
      </g>
     </g>
    </g>
    <g id="ytick_21">
     <g id="line2d_42">
      <g>
       <use xlink:href="#m5966b170ec" x="286.956667" y="94.557993" style="stroke: #000000; stroke-width: 0.8"/>
      </g>
     </g>
    </g>
    <g id="ytick_22">
     <g id="line2d_43">
      <g>
       <use xlink:href="#m5966b170ec" x="286.956667" y="71.481842" style="stroke: #000000; stroke-width: 0.8"/>
      </g>
     </g>
    </g>
    <g id="ytick_23">
     <g id="line2d_44">
      <g>
       <use xlink:href="#m5966b170ec" x="286.956667" y="48.405691" style="stroke: #000000; stroke-width: 0.8"/>
      </g>
     </g>
    </g>
   </g>
   <g id="patch_21">
    <path d="M 47.72 209.93875 
L 47.72 34.56 
" style="fill: none; stroke: #000000; stroke-width: 0.8; stroke-linejoin: miter; stroke-linecap: square"/>
   </g>
   <g id="patch_22">
    <path d="M 286.956667 209.93875 
L 286.956667 34.56 
" style="fill: none; stroke: #000000; stroke-width: 0.8; stroke-linejoin: miter; stroke-linecap: square"/>
   </g>
   <g id="patch_23">
    <path d="M 47.72 209.93875 
L 286.956667 209.93875 
" style="fill: none; stroke: #000000; stroke-width: 0.8; stroke-linejoin: miter; stroke-linecap: square"/>
   </g>
   <g id="patch_24">
    <path d="M 47.72 34.56 
L 286.956667 34.56 
" style="fill: none; stroke: #000000; stroke-width: 0.8; stroke-linejoin: miter; stroke-linecap: square"/>
   </g>
  </g>
  <g id="axes_5">
   <g id="patch_25">
    <path d="M 324.831061 209.93875 
L 324.831061 136.095066 
L 346.579848 136.095066 
L 346.579848 117.634145 
L 368.328636 117.634145 
L 368.328636 89.942763 
L 390.077424 89.942763 
L 390.077424 159.171217 
L 411.826212 159.171217 
L 411.826212 136.095066 
L 433.575 136.095066 
L 433.575 108.403684 
L 455.323788 108.403684 
L 455.323788 136.095066 
L 477.072576 136.095066 
L 477.072576 103.788454 
L 498.821364 103.788454 
L 498.821364 108.403684 
L 520.570152 108.403684 
L 520.570152 80.712303 
L 542.318939 80.712303 
L 542.318939 209.93875 
" clip-path="url(#pe004c148e8)" style="fill: #808080; opacity: 0.3"/>
   </g>
   <g id="matplotlib.axis_8">
    <g id="ytick_24">
     <g id="line2d_45">
      <g>
       <use xlink:href="#m5966b170ec" x="553.193333" y="209.93875" style="stroke: #000000; stroke-width: 0.8"/>
      </g>
     </g>
    </g>
    <g id="ytick_25">
     <g id="line2d_46">
      <g>
       <use xlink:href="#m5966b170ec" x="553.193333" y="186.862599" style="stroke: #000000; stroke-width: 0.8"/>
      </g>
     </g>
    </g>
    <g id="ytick_26">
     <g id="line2d_47">
      <g>
       <use xlink:href="#m5966b170ec" x="553.193333" y="163.786447" style="stroke: #000000; stroke-width: 0.8"/>
      </g>
     </g>
    </g>
    <g id="ytick_27">
     <g id="line2d_48">
      <g>
       <use xlink:href="#m5966b170ec" x="553.193333" y="140.710296" style="stroke: #000000; stroke-width: 0.8"/>
      </g>
     </g>
    </g>
    <g id="ytick_28">
     <g id="line2d_49">
      <g>
       <use xlink:href="#m5966b170ec" x="553.193333" y="117.634145" style="stroke: #000000; stroke-width: 0.8"/>
      </g>
     </g>
    </g>
    <g id="ytick_29">
     <g id="line2d_50">
      <g>
       <use xlink:href="#m5966b170ec" x="553.193333" y="94.557993" style="stroke: #000000; stroke-width: 0.8"/>
      </g>
     </g>
    </g>
    <g id="ytick_30">
     <g id="line2d_51">
      <g>
       <use xlink:href="#m5966b170ec" x="553.193333" y="71.481842" style="stroke: #000000; stroke-width: 0.8"/>
      </g>
     </g>
    </g>
    <g id="ytick_31">
     <g id="line2d_52">
      <g>
       <use xlink:href="#m5966b170ec" x="553.193333" y="48.405691" style="stroke: #000000; stroke-width: 0.8"/>
      </g>
     </g>
    </g>
   </g>
   <g id="patch_26">
    <path d="M 313.956667 209.93875 
L 313.956667 34.56 
" style="fill: none; stroke: #000000; stroke-width: 0.8; stroke-linejoin: miter; stroke-linecap: square"/>
   </g>
   <g id="patch_27">
    <path d="M 553.193333 209.93875 
L 553.193333 34.56 
" style="fill: none; stroke: #000000; stroke-width: 0.8; stroke-linejoin: miter; stroke-linecap: square"/>
   </g>
   <g id="patch_28">
    <path d="M 313.956667 209.93875 
L 553.193333 209.93875 
" style="fill: none; stroke: #000000; stroke-width: 0.8; stroke-linejoin: miter; stroke-linecap: square"/>
   </g>
   <g id="patch_29">
    <path d="M 313.956667 34.56 
L 553.193333 34.56 
" style="fill: none; stroke: #000000; stroke-width: 0.8; stroke-linejoin: miter; stroke-linecap: square"/>
   </g>
  </g>
  <g id="axes_6">
   <g id="patch_30">
    <path d="M 591.067727 209.93875 
L 591.067727 163.786447 
L 612.816515 163.786447 
L 612.816515 94.557993 
L 634.565303 94.557993 
L 634.565303 117.634145 
L 656.314091 117.634145 
L 656.314091 131.479836 
L 678.062879 131.479836 
L 678.062879 85.327533 
L 699.811667 85.327533 
L 699.811667 126.864605 
L 721.560455 126.864605 
L 721.560455 85.327533 
L 743.309242 85.327533 
L 743.309242 94.557993 
L 765.05803 94.557993 
L 765.05803 136.095066 
L 786.806818 136.095066 
L 786.806818 140.710296 
L 808.555606 140.710296 
L 808.555606 209.93875 
" clip-path="url(#p64574385e9)" style="fill: #808080; opacity: 0.3"/>
   </g>
   <g id="matplotlib.axis_9">
    <g id="ytick_32">
     <g id="line2d_53">
      <g>
       <use xlink:href="#m5966b170ec" x="819.43" y="209.93875" style="stroke: #000000; stroke-width: 0.8"/>
      </g>
     </g>
     <g id="text_30">
      <!-- 0 -->
      <g transform="translate(826.43 213.737969) scale(0.1 -0.1)">
       <use xlink:href="#DejaVuSans-30"/>
      </g>
     </g>
    </g>
    <g id="ytick_33">
     <g id="line2d_54">
      <g>
       <use xlink:href="#m5966b170ec" x="819.43" y="186.862599" style="stroke: #000000; stroke-width: 0.8"/>
      </g>
     </g>
     <g id="text_31">
      <!-- 5 -->
      <g transform="translate(826.43 190.661817) scale(0.1 -0.1)">
       <use xlink:href="#DejaVuSans-35"/>
      </g>
     </g>
    </g>
    <g id="ytick_34">
     <g id="line2d_55">
      <g>
       <use xlink:href="#m5966b170ec" x="819.43" y="163.786447" style="stroke: #000000; stroke-width: 0.8"/>
      </g>
     </g>
     <g id="text_32">
      <!-- 10 -->
      <g transform="translate(826.43 167.585666) scale(0.1 -0.1)">
       <use xlink:href="#DejaVuSans-31"/>
       <use xlink:href="#DejaVuSans-30" x="63.623047"/>
      </g>
     </g>
    </g>
    <g id="ytick_35">
     <g id="line2d_56">
      <g>
       <use xlink:href="#m5966b170ec" x="819.43" y="140.710296" style="stroke: #000000; stroke-width: 0.8"/>
      </g>
     </g>
     <g id="text_33">
      <!-- 15 -->
      <g transform="translate(826.43 144.509515) scale(0.1 -0.1)">
       <use xlink:href="#DejaVuSans-31"/>
       <use xlink:href="#DejaVuSans-35" x="63.623047"/>
      </g>
     </g>
    </g>
    <g id="ytick_36">
     <g id="line2d_57">
      <g>
       <use xlink:href="#m5966b170ec" x="819.43" y="117.634145" style="stroke: #000000; stroke-width: 0.8"/>
      </g>
     </g>
     <g id="text_34">
      <!-- 20 -->
      <g transform="translate(826.43 121.433363) scale(0.1 -0.1)">
       <use xlink:href="#DejaVuSans-32"/>
       <use xlink:href="#DejaVuSans-30" x="63.623047"/>
      </g>
     </g>
    </g>
    <g id="ytick_37">
     <g id="line2d_58">
      <g>
       <use xlink:href="#m5966b170ec" x="819.43" y="94.557993" style="stroke: #000000; stroke-width: 0.8"/>
      </g>
     </g>
     <g id="text_35">
      <!-- 25 -->
      <g transform="translate(826.43 98.357212) scale(0.1 -0.1)">
       <use xlink:href="#DejaVuSans-32"/>
       <use xlink:href="#DejaVuSans-35" x="63.623047"/>
      </g>
     </g>
    </g>
    <g id="ytick_38">
     <g id="line2d_59">
      <g>
       <use xlink:href="#m5966b170ec" x="819.43" y="71.481842" style="stroke: #000000; stroke-width: 0.8"/>
      </g>
     </g>
     <g id="text_36">
      <!-- 30 -->
      <g transform="translate(826.43 75.281061) scale(0.1 -0.1)">
       <defs>
        <path id="DejaVuSans-33" d="M 2597 2516 
Q 3050 2419 3304 2112 
Q 3559 1806 3559 1356 
Q 3559 666 3084 287 
Q 2609 -91 1734 -91 
Q 1441 -91 1130 -33 
Q 819 25 488 141 
L 488 750 
Q 750 597 1062 519 
Q 1375 441 1716 441 
Q 2309 441 2620 675 
Q 2931 909 2931 1356 
Q 2931 1769 2642 2001 
Q 2353 2234 1838 2234 
L 1294 2234 
L 1294 2753 
L 1863 2753 
Q 2328 2753 2575 2939 
Q 2822 3125 2822 3475 
Q 2822 3834 2567 4026 
Q 2313 4219 1838 4219 
Q 1578 4219 1281 4162 
Q 984 4106 628 3988 
L 628 4550 
Q 988 4650 1302 4700 
Q 1616 4750 1894 4750 
Q 2613 4750 3031 4423 
Q 3450 4097 3450 3541 
Q 3450 3153 3228 2886 
Q 3006 2619 2597 2516 
z
" transform="scale(0.015625)"/>
       </defs>
       <use xlink:href="#DejaVuSans-33"/>
       <use xlink:href="#DejaVuSans-30" x="63.623047"/>
      </g>
     </g>
    </g>
    <g id="ytick_39">
     <g id="line2d_60">
      <g>
       <use xlink:href="#m5966b170ec" x="819.43" y="48.405691" style="stroke: #000000; stroke-width: 0.8"/>
      </g>
     </g>
     <g id="text_37">
      <!-- 35 -->
      <g transform="translate(826.43 52.20491) scale(0.1 -0.1)">
       <use xlink:href="#DejaVuSans-33"/>
       <use xlink:href="#DejaVuSans-35" x="63.623047"/>
      </g>
     </g>
    </g>
    <g id="text_38">
     <!-- Sample Frequency -->
     <g transform="translate(850.753438 168.416562) rotate(-90) scale(0.1 -0.1)">
      <defs>
       <path id="DejaVuSans-46" d="M 628 4666 
L 3309 4666 
L 3309 4134 
L 1259 4134 
L 1259 2759 
L 3109 2759 
L 3109 2228 
L 1259 2228 
L 1259 0 
L 628 0 
L 628 4666 
z
" transform="scale(0.015625)"/>
       <path id="DejaVuSans-71" d="M 947 1747 
Q 947 1113 1208 752 
Q 1469 391 1925 391 
Q 2381 391 2643 752 
Q 2906 1113 2906 1747 
Q 2906 2381 2643 2742 
Q 2381 3103 1925 3103 
Q 1469 3103 1208 2742 
Q 947 2381 947 1747 
z
M 2906 525 
Q 2725 213 2448 61 
Q 2172 -91 1784 -91 
Q 1150 -91 751 415 
Q 353 922 353 1747 
Q 353 2572 751 3078 
Q 1150 3584 1784 3584 
Q 2172 3584 2448 3432 
Q 2725 3281 2906 2969 
L 2906 3500 
L 3481 3500 
L 3481 -1331 
L 2906 -1331 
L 2906 525 
z
" transform="scale(0.015625)"/>
       <path id="DejaVuSans-75" d="M 544 1381 
L 544 3500 
L 1119 3500 
L 1119 1403 
Q 1119 906 1312 657 
Q 1506 409 1894 409 
Q 2359 409 2629 706 
Q 2900 1003 2900 1516 
L 2900 3500 
L 3475 3500 
L 3475 0 
L 2900 0 
L 2900 538 
Q 2691 219 2414 64 
Q 2138 -91 1772 -91 
Q 1169 -91 856 284 
Q 544 659 544 1381 
z
M 1991 3584 
L 1991 3584 
z
" transform="scale(0.015625)"/>
       <path id="DejaVuSans-79" d="M 2059 -325 
Q 1816 -950 1584 -1140 
Q 1353 -1331 966 -1331 
L 506 -1331 
L 506 -850 
L 844 -850 
Q 1081 -850 1212 -737 
Q 1344 -625 1503 -206 
L 1606 56 
L 191 3500 
L 800 3500 
L 1894 763 
L 2988 3500 
L 3597 3500 
L 2059 -325 
z
" transform="scale(0.015625)"/>
      </defs>
      <use xlink:href="#DejaVuSans-53"/>
      <use xlink:href="#DejaVuSans-61" x="63.476562"/>
      <use xlink:href="#DejaVuSans-6d" x="124.755859"/>
      <use xlink:href="#DejaVuSans-70" x="222.167969"/>
      <use xlink:href="#DejaVuSans-6c" x="285.644531"/>
      <use xlink:href="#DejaVuSans-65" x="313.427734"/>
      <use xlink:href="#DejaVuSans-20" x="374.951172"/>
      <use xlink:href="#DejaVuSans-46" x="406.738281"/>
      <use xlink:href="#DejaVuSans-72" x="457.007812"/>
      <use xlink:href="#DejaVuSans-65" x="495.871094"/>
      <use xlink:href="#DejaVuSans-71" x="557.394531"/>
      <use xlink:href="#DejaVuSans-75" x="620.871094"/>
      <use xlink:href="#DejaVuSans-65" x="684.25"/>
      <use xlink:href="#DejaVuSans-6e" x="745.773438"/>
      <use xlink:href="#DejaVuSans-63" x="809.152344"/>
      <use xlink:href="#DejaVuSans-79" x="864.132812"/>
     </g>
    </g>
   </g>
   <g id="patch_31">
    <path d="M 580.193333 209.93875 
L 580.193333 34.56 
" style="fill: none; stroke: #000000; stroke-width: 0.8; stroke-linejoin: miter; stroke-linecap: square"/>
   </g>
   <g id="patch_32">
    <path d="M 819.43 209.93875 
L 819.43 34.56 
" style="fill: none; stroke: #000000; stroke-width: 0.8; stroke-linejoin: miter; stroke-linecap: square"/>
   </g>
   <g id="patch_33">
    <path d="M 580.193333 209.93875 
L 819.43 209.93875 
" style="fill: none; stroke: #000000; stroke-width: 0.8; stroke-linejoin: miter; stroke-linecap: square"/>
   </g>
   <g id="patch_34">
    <path d="M 580.193333 34.56 
L 819.43 34.56 
" style="fill: none; stroke: #000000; stroke-width: 0.8; stroke-linejoin: miter; stroke-linecap: square"/>
   </g>
  </g>
  <g id="text_39">
   <!-- Hyperparam Scores -->
   <g transform="translate(372.66 14.158125) scale(0.12 -0.12)">
    <defs>
     <path id="DejaVuSans-48" d="M 628 4666 
L 1259 4666 
L 1259 2753 
L 3553 2753 
L 3553 4666 
L 4184 4666 
L 4184 0 
L 3553 0 
L 3553 2222 
L 1259 2222 
L 1259 0 
L 628 0 
L 628 4666 
z
" transform="scale(0.015625)"/>
    </defs>
    <use xlink:href="#DejaVuSans-48"/>
    <use xlink:href="#DejaVuSans-79" x="75.195312"/>
    <use xlink:href="#DejaVuSans-70" x="134.375"/>
    <use xlink:href="#DejaVuSans-65" x="197.851562"/>
    <use xlink:href="#DejaVuSans-72" x="259.375"/>
    <use xlink:href="#DejaVuSans-70" x="300.488281"/>
    <use xlink:href="#DejaVuSans-61" x="363.964844"/>
    <use xlink:href="#DejaVuSans-72" x="425.244141"/>
    <use xlink:href="#DejaVuSans-61" x="466.357422"/>
    <use xlink:href="#DejaVuSans-6d" x="527.636719"/>
    <use xlink:href="#DejaVuSans-20" x="625.048828"/>
    <use xlink:href="#DejaVuSans-53" x="656.835938"/>
    <use xlink:href="#DejaVuSans-63" x="720.3125"/>
    <use xlink:href="#DejaVuSans-6f" x="775.292969"/>
    <use xlink:href="#DejaVuSans-72" x="836.474609"/>
    <use xlink:href="#DejaVuSans-65" x="875.337891"/>
    <use xlink:href="#DejaVuSans-73" x="936.861328"/>
   </g>
  </g>
 </g>
 <defs>
  <clipPath id="p1d245a2bf0">
   <rect x="47.72" y="34.56" width="239.236667" height="175.37875"/>
  </clipPath>
  <clipPath id="pe004c148e8">
   <rect x="313.956667" y="34.56" width="239.236667" height="175.37875"/>
  </clipPath>
  <clipPath id="p64574385e9">
   <rect x="580.193333" y="34.56" width="239.236667" height="175.37875"/>
  </clipPath>
 </defs>
</svg>
